<?xml version="1.0" encoding="utf-8"?>
<svg xmlns="http://www.w3.org/2000/svg" preserveAspectRatio="xMidYMid meet" version="1.0" viewBox="0 0 180 166">
	<title>The telephonoscope message sent from Mars, showing pictograms of the comet, the Moon, the Earth and the estimated impact point in Italy.</title>
	<g fill="#000000" stroke="none" transform="translate(0.000000,166.080000) rotate(-360.00) scale(0.022857,-0.022857)">
		<path d="M0 3633 l0 -3633 3948 0 3948 0 0 3633 0 3633 -3948 0 -3948 0 0 -3633z m7844 0 l0 -3580 -3896 0 -3895 0 0 3580 0 3581 3895 0 3896 0 0 -3581z"/>
		<path d="M1134 6930 c0 -6 4 -10 10 -10 5 0 294 -191 641 -423 347 -233 648 -433 668 -445 21 -12 48 -33 60 -46 l23 -24 -32 19 c-17 11 -39 26 -49 34 -10 8 -24 13 -32 10 -13 -5 -126 48 -196 92 -21 12 -73 42 -116 65 -44 24 -98 54 -121 67 -23 13 -85 47 -137 76 -52 28 -125 70 -162 91 -38 22 -90 52 -116 66 -26 14 -96 53 -155 85 -101 56 -139 70 -139 52 0 -5 65 -41 144 -82 80 -40 175 -90 213 -111 38 -21 108 -59 158 -85 49 -26 114 -63 144 -81 31 -18 57 -32 59 -32 2 0 43 -23 92 -51 48 -28 126 -71 172 -96 46 -25 93 -53 105 -61 20 -14 20 -15 -5 -7 -15 4 -50 20 -79 35 -29 14 -67 27 -86 28 -35 1 -40 3 -245 102 -187 90 -223 104 -233 93 -6 -5 12 -18 42 -31 29 -13 113 -52 187 -87 74 -35 152 -70 172 -78 20 -7 77 -32 126 -55 49 -23 115 -54 147 -68 321 -143 405 -182 408 -190 2 -5 13 -18 24 -29 22 -22 58 -15 77 16 8 14 6 22 -14 38 -14 11 -33 21 -43 21 -19 0 -72 52 -363 362 -98 104 -182 191 -187 193 -27 11 13 -34 165 -188 92 -92 165 -171 161 -174 -8 -9 -51 26 -154 126 -44 41 -101 94 -128 117 -27 23 -93 81 -147 129 -180 162 -245 219 -306 271 -34 28 -86 73 -115 100 -30 27 -59 46 -64 43 -6 -4 8 -21 30 -39 57 -45 302 -260 378 -330 35 -33 133 -118 218 -190 84 -72 152 -132 150 -135 -5 -4 -78 51 -179 135 -202 168 -374 308 -541 439 -66 52 -150 119 -187 149 -36 30 -68 52 -72 49 -6 -6 38 -48 85 -81 30 -21 177 -139 431 -348 58 -47 172 -139 254 -204 82 -66 152 -125 156 -132 12 -18 -8 -5 -104 69 -144 111 -203 154 -265 196 -14 9 -39 29 -56 44 -16 15 -47 38 -67 51 -20 14 -75 53 -123 88 -47 34 -99 72 -116 84 -77 54 -205 150 -239 179 -47 40 -110 78 -128 78 -11 0 60 -56 177 -138 19 -14 79 -58 133 -98 306 -227 528 -390 605 -445 35 -25 62 -47 58 -51 -3 -3 -41 20 -84 51 -70 50 -94 66 -166 110 -10 6 -28 19 -38 29 -11 9 -23 17 -26 17 -4 0 -40 22 -79 50 -39 27 -79 54 -89 60 -19 12 -316 213 -524 355 -126 86 -166 106 -166 81z m1307 -924 c4 -6 2 -10 -4 -10 -6 0 -13 4 -17 10 -3 6 -2 11 4 11 6 0 14 -5 17 -11z"/>
		<path d="M1218 6774 c0 -9 53 -44 125 -84 14 -8 47 -26 74 -41 26 -15 60 -35 76 -46 24 -17 114 -70 182 -108 12 -6 35 -21 52 -33 18 -13 53 -34 79 -49 26 -14 116 -69 200 -120 207 -128 263 -160 236 -133 -12 12 -102 70 -200 130 -98 59 -191 115 -206 124 -28 17 -130 80 -292 178 -50 30 -97 59 -105 65 -90 55 -210 126 -215 126 -3 0 -6 -4 -6 -9z"/>
		<path d="M5678 6525 c-8 -13 -12 -126 -8 -230 3 -83 3 -82 15 58 12 127 9 198 -7 172z"/>
		<path d="M5822 6503 c-3 -16 -13 -57 -22 -91 -17 -64 -13 -94 6 -45 6 16 11 33 11 39 0 5 4 18 10 28 9 16 21 61 22 84 1 4 -4 9 -10 11 -6 2 -14 -10 -17 -26z"/>
		<path d="M5981 6522 c-20 -33 -90 -173 -90 -181 0 -5 -15 -32 -32 -60 -37 -61 -39 -70 -10 -54 12 6 19 15 16 19 -4 7 39 94 108 213 19 34 30 62 24 66 -6 3 -13 2 -16 -3z"/>
		<path d="M1376 6511 c0 -9 251 -137 268 -137 5 0 16 -7 25 -15 9 -7 33 -20 53 -27 20 -8 117 -54 214 -102 98 -49 182 -87 187 -85 6 2 -69 44 -166 94 -98 49 -260 133 -362 186 -175 90 -219 108 -219 86z"/>
		<path d="M5516 6461 c3 -16 11 -53 17 -82 7 -29 16 -80 22 -114 11 -67 18 -84 30 -76 5 3 5 26 0 50 -6 25 -17 81 -26 124 -9 43 -17 88 -18 99 -1 11 -9 22 -17 25 -11 3 -13 -3 -8 -26z"/>
		<path d="M6095 6469 c-8 -17 -61 -88 -123 -166 -7 -9 -7 -13 1 -13 6 0 38 34 71 76 33 41 67 80 74 84 18 11 18 39 1 39 -8 0 -18 -9 -24 -20z"/>
		<path d="M5355 6417 c0 -13 50 -115 97 -196 50 -86 48 -84 56 -76 3 3 -5 24 -19 46 -25 39 -93 179 -106 217 -6 18 -28 26 -28 9z"/>
		<path d="M5735 6382 c-14 -45 -24 -171 -13 -159 9 9 34 184 27 190 -2 2 -8 -12 -14 -31z"/>
		<path d="M5842 6390 c-11 -29 2 -40 15 -12 7 17 8 27 1 27 -5 0 -13 -7 -16 -15z"/>
		<path d="M5604 6303 c8 -116 26 -124 22 -11 -2 62 -7 92 -15 92 -9 0 -11 -22 -7 -81z"/>
		<path d="M6215 6367 c-8 -10 -51 -45 -97 -80 -45 -34 -80 -65 -77 -68 7 -7 207 134 207 145 0 17 -20 19 -33 3z"/>
		<path d="M5937 6334 c-35 -51 -46 -75 -32 -70 14 6 63 88 56 95 -3 3 -13 -8 -24 -25z"/>
		<path d="M5261 6320 c0 -18 33 -61 108 -139 52 -55 69 -67 74 -54 9 23 -60 152 -74 138 -3 -3 9 -27 28 -54 18 -26 31 -53 29 -60 -4 -12 -72 65 -118 136 -28 43 -47 57 -47 33z"/>
		<path d="M5776 6307 c-6 -16 -11 -35 -11 -42 0 -7 -6 -19 -13 -26 -10 -10 -9 -12 5 -12 11 0 18 8 18 21 0 12 5 31 11 43 6 11 9 26 7 33 -3 7 -10 -1 -17 -17z"/>
		<path d="M5475 6296 c10 -42 48 -125 54 -119 8 8 -41 144 -52 144 -5 0 -6 -11 -2 -25z"/>
		<path d="M6036 6292 c-31 -35 -33 -50 -3 -21 16 16 27 31 24 34 -3 3 -13 -3 -21 -13z"/>
		<path d="M5802 6280 c-4 -7 -5 -16 -2 -19 10 -10 20 4 15 19 -4 11 -6 11 -13 0z"/>
		<path d="M5950 6272 c-4 -4 -7 -12 -7 -18 0 -6 5 -6 12 2 7 7 10 15 7 18 -3 3 -8 2 -12 -2z"/>
		<path d="M6237 6222 c-138 -61 -174 -79 -160 -79 7 0 37 11 68 24 30 14 87 35 126 48 39 13 71 28 71 33 0 17 -23 11 -105 -26z"/>
		<path d="M5166 6218 c0 -13 41 -48 89 -75 23 -14 54 -35 69 -48 75 -66 89 -14 15 58 -26 26 -47 41 -47 34 0 -7 17 -25 37 -41 20 -17 36 -36 36 -45 0 -11 -3 -11 -19 3 -10 10 -23 18 -27 18 -5 0 -39 23 -75 52 -69 54 -78 59 -78 44z"/>
		<path d="M6077 6187 c-27 -15 -48 -29 -46 -31 4 -4 112 49 112 55 0 9 -16 3 -66 -24z"/>
		<path d="M2142 6132 c0 -12 52 -35 60 -27 3 2 -10 12 -28 21 -19 10 -32 12 -32 6z"/>
		<path d="M2282 6129 c11 -7 40 -26 63 -41 24 -16 48 -29 54 -29 6 0 -19 19 -54 42 -36 23 -69 41 -74 41 -5 0 1 -6 11 -13z"/>
		<path d="M6022 6133 c-11 -5 -15 -11 -9 -15 6 -3 20 0 31 9 21 16 11 19 -22 6z"/>
		<path d="M5082 6111 c0 -13 12 -20 144 -84 60 -28 108 -48 108 -44 0 5 -48 34 -108 64 -59 31 -112 60 -117 65 -14 13 -27 12 -27 -1z"/>
		<path d="M5187 6112 c0 -5 13 -15 29 -21 16 -7 48 -24 71 -37 41 -25 79 -34 78 -19 -1 8 -156 87 -170 87 -4 0 -8 -5 -8 -10z"/>
		<path d="M6082 6102 c-36 -8 -65 -20 -65 -25 0 -4 12 -6 28 -2 93 20 129 30 129 38 0 11 -10 9 -92 -11z"/>
		<path d="M6190 6084 c-58 -14 -129 -28 -158 -32 -61 -7 -89 -25 -39 -25 18 0 44 4 57 10 13 5 80 17 148 28 69 10 122 23 120 29 -6 17 -18 16 -128 -10z"/>
		<path d="M5971 6083 c-11 -11 3 -24 20 -18 8 4 12 10 9 16 -7 11 -19 12 -29 2z"/>
		<path d="M5664 6070 c-191 -46 -297 -243 -221 -414 50 -114 159 -181 309 -193 102 -8 116 9 46 54 -93 61 -123 136 -115 284 8 136 48 202 149 246 25 10 28 15 16 23 -18 11 -137 11 -184 0z m101 -22 c0 -5 -15 -26 -32 -46 -54 -61 -77 -127 -78 -222 -1 -116 18 -173 79 -239 29 -29 52 -55 52 -57 0 -9 -47 -1 -110 19 -153 48 -225 135 -226 274 0 55 5 80 23 112 49 84 95 124 176 152 53 19 116 23 116 7z"/>
		<path d="M5145 5996 c0 -5 27 -18 60 -30 34 -11 69 -24 79 -28 10 -4 19 -3 19 3 0 11 -54 35 -119 52 -21 6 -39 7 -39 3z"/>
		<path d="M5972 5998 c-35 -2 -60 -8 -60 -15 0 -14 167 -2 183 13 10 10 4 10 -123 2z"/>
		<path d="M5004 5986 c-3 -5 26 -19 65 -30 39 -11 100 -29 136 -39 111 -32 84 -11 -36 29 -159 52 -158 51 -165 40z"/>
		<path d="M6214 5969 c-3 -3 -38 -9 -78 -12 -40 -3 -97 -9 -126 -13 -30 -4 -76 -8 -103 -7 -34 0 -48 -3 -48 -13 0 -9 6 -12 17 -8 9 3 92 11 184 16 169 10 193 15 182 33 -7 11 -20 12 -28 4z"/>
		<path d="M5108 5900 c-6 -9 13 -15 86 -25 24 -3 51 -8 60 -12 9 -3 17 -2 17 4 0 5 -27 16 -60 23 -93 20 -97 20 -103 10z"/>
		<path d="M2890 5888 c-17 -17 -16 -36 2 -43 19 -7 42 19 34 40 -8 19 -19 20 -36 3z"/>
		<path d="M5922 5889 c-70 -10 -82 -15 -70 -26 4 -4 25 -2 48 5 22 7 62 12 89 12 27 0 49 5 49 11 0 12 -21 11 -116 -2z"/>
		<path d="M4972 5860 c12 -12 175 -33 247 -31 39 1 33 3 -37 14 -148 23 -222 29 -210 17z"/>
		<path d="M2972 5843 c-11 -12 -11 -19 0 -31 16 -21 40 -20 48 0 6 16 -12 47 -27 47 -5 0 -14 -7 -21 -16z"/>
		<path d="M6017 5848 c-61 -4 -129 -8 -152 -9 -23 0 -37 -5 -32 -10 17 -14 365 1 370 17 5 14 -4 14 -186 2z"/>
		<path d="M4344 5807 c5 -21 2 -22 -46 -17 -81 8 -841 9 -853 1 -6 -4 -11 -16 -11 -27 0 -20 11 -20 455 -20 358 0 455 -3 454 -14 -2 -21 7 -20 72 9 54 24 60 29 42 37 -37 16 -105 45 -112 49 -4 2 -4 -6 -1 -18z"/>
		<path d="M5093 5787 c0 -5 35 -8 78 -8 44 0 79 3 79 8 0 5 -35 9 -79 9 -43 0 -78 -4 -78 -9z"/>
		<path d="M5877 5778 c31 -2 80 -2 111 0 30 2 5 4 -55 4 -61 0 -86 -2 -56 -4z"/>
		<path d="M5166 5753 c-20 -5 -73 -12 -118 -15 -45 -4 -81 -12 -81 -17 0 -7 20 -8 55 -4 160 20 218 30 218 38 0 11 -23 10 -74 -2z"/>
		<path d="M5870 5743 c-26 -5 -4 -8 73 -9 253 -5 266 -4 258 9 -7 11 -278 12 -331 0z"/>
		<path d="M2964 5731 c-15 -15 1 -50 23 -50 22 0 39 35 24 50 -7 7 -17 13 -24 13 -6 0 -17 -6 -23 -13z"/>
		<path d="M2777 5711 c-4 -12 -2 -27 5 -34 15 -15 48 17 39 39 -9 24 -36 21 -44 -5z"/>
		<path d="M5212 5694 c-10 -16 -14 -17 -29 -4 -15 13 -19 12 -30 -2 -7 -9 -37 -21 -66 -27 -29 -6 -61 -14 -71 -18 -14 -5 -18 -1 -18 21 0 38 -35 33 -40 -6 -3 -23 2 -28 29 -34 18 -3 43 -2 56 3 50 19 99 32 168 44 41 8 69 18 67 24 -6 20 -53 19 -66 -1z"/>
		<path d="M5844 5702 c-5 -7 24 -11 95 -11 56 0 100 2 98 4 -13 11 -187 18 -193 7z"/>
		<path d="M2873 5665 c-17 -18 -13 -43 8 -51 22 -8 40 9 36 35 -4 31 -22 37 -44 16z"/>
		<path d="M5853 5658 c-8 -12 20 -15 158 -18 75 -1 150 -5 167 -8 22 -5 29 -3 25 8 -3 11 -44 15 -175 20 -94 2 -173 2 -175 -2z"/>
		<path d="M5234 5614 c-12 -14 -61 -43 -110 -65 -86 -38 -133 -68 -108 -68 6 0 71 31 145 70 93 48 129 72 119 78 -21 13 -24 12 -46 -15z"/>
		<path d="M5129 5602 c-42 -19 -17 -20 28 -1 19 9 28 16 20 16 -9 0 -30 -7 -48 -15z"/>
		<path d="M5874 5608 c4 -7 47 -11 102 -11 52 0 92 3 89 8 -2 4 -48 9 -101 11 -66 2 -94 -1 -90 -8z"/>
		<path d="M5271 5564 c0 -6 5 -7 12 -3 7 4 10 1 7 -8 -3 -8 -41 -38 -85 -67 -82 -55 -137 -100 -129 -107 8 -8 48 18 131 86 45 36 88 68 96 70 18 7 5 41 -16 41 -9 0 -16 -6 -16 -12z"/>
		<path d="M5925 5564 c28 -16 323 -26 323 -11 0 8 -40 12 -129 13 -71 0 -148 3 -171 5 -33 4 -38 2 -23 -7z"/>
		<path d="M5217 5537 c-13 -16 -12 -16 9 -5 25 13 31 23 15 23 -5 0 -16 -8 -24 -18z"/>
		<path d="M5980 5523 c20 -9 202 -15 193 -7 -2 3 -51 7 -109 10 -61 3 -96 2 -84 -3z"/>
		<path d="M5165 5506 c-13 -16 -13 -17 9 -5 24 13 30 22 14 22 -5 0 -15 -8 -23 -17z"/>
		<path d="M5335 5504 c4 -24 -10 -43 -92 -129 -62 -64 -88 -98 -80 -105 7 -7 19 1 38 26 16 21 43 53 61 72 46 50 104 119 104 126 0 3 -8 8 -16 12 -9 3 -15 2 -15 -2z"/>
		<path d="M5251 5449 c-32 -29 -53 -52 -47 -52 6 0 36 23 68 52 31 29 52 52 46 52 -6 0 -36 -23 -67 -52z"/>
		<path d="M6006 5484 c0 -6 22 -14 50 -17 27 -4 73 -11 102 -17 87 -18 188 -26 181 -14 -4 6 -37 14 -73 17 -65 7 -145 19 -221 33 -24 5 -39 4 -39 -2z"/>
		<path d="M5331 5388 c-49 -71 -58 -90 -40 -84 9 3 106 143 106 152 0 18 -25 -8 -66 -68z"/>
		<path d="M6020 5443 c6 -7 142 -55 157 -56 4 0 8 3 8 8 0 5 -33 19 -72 31 -71 23 -106 29 -93 17z"/>
		<path d="M5387 5398 c-12 -17 -21 -33 -21 -35 0 -3 -24 -47 -53 -99 -57 -102 -60 -108 -37 -108 9 0 16 5 16 11 0 15 76 165 111 221 30 47 16 55 -16 10z"/>
		<path d="M5991 5401 c-7 -19 10 -46 29 -46 7 0 33 -17 58 -37 40 -31 75 -47 75 -32 0 2 -32 24 -71 48 -84 53 -81 51 -73 59 4 4 13 2 20 -4 8 -5 75 -35 150 -65 75 -30 145 -62 155 -71 18 -16 50 -12 50 6 0 5 -20 17 -45 25 -102 37 -216 81 -273 107 -72 32 -67 31 -75 10z"/>
		<path d="M5428 5381 c-5 -15 -13 -40 -17 -55 -3 -16 -15 -46 -26 -68 -22 -43 -23 -50 -12 -50 5 0 14 13 20 29 6 16 24 59 39 95 32 75 32 76 17 76 -6 0 -15 -13 -21 -27z"/>
		<path d="M5429 5241 c-23 -74 -42 -140 -42 -147 0 -27 18 -10 29 27 18 62 27 92 28 98 3 11 38 126 44 141 3 9 1 16 -5 16 -6 0 -30 -61 -54 -135z"/>
		<path d="M5943 5360 c0 -8 5 -15 11 -15 24 0 260 -202 267 -228 7 -30 30 -28 35 3 2 14 -19 36 -74 77 -42 32 -110 85 -152 118 -41 34 -78 61 -81 61 -3 0 -6 -7 -6 -16z"/>
		<path d="M5520 5359 c-11 -11 -9 -46 3 -46 6 0 11 12 11 26 0 28 -3 31 -14 20z"/>
		<path d="M5570 5344 c-4 -6 -11 -54 -16 -107 -5 -54 -14 -122 -21 -153 -12 -55 -8 -79 9 -59 15 17 53 330 40 330 -3 0 -8 -5 -12 -11z"/>
		<path d="M5912 5347 c0 -6 7 -17 16 -25 15 -12 17 -11 14 6 -4 21 -30 37 -30 19z"/>
		<path d="M5616 5283 c-2 -110 0 -140 9 -134 10 6 9 172 0 181 -4 4 -8 -17 -9 -47z"/>
		<path d="M5870 5328 c0 -7 24 -48 55 -93 30 -45 59 -89 65 -99 45 -73 92 -138 100 -138 19 0 10 24 -25 67 -19 24 -40 54 -47 67 -7 13 -36 55 -65 94 -28 39 -59 81 -67 92 -9 12 -16 16 -16 10z"/>
		<path d="M5663 5279 c4 -25 12 -103 19 -173 9 -98 16 -129 27 -129 11 0 13 9 8 34 -10 57 -27 188 -33 252 -3 33 -11 61 -16 61 -7 0 -8 -18 -5 -45z"/>
		<path d="M5717 5274 c10 -72 32 -146 40 -132 7 11 -27 167 -40 179 -4 4 -4 -17 0 -47z"/>
		<path d="M5765 5302 c0 -12 5 -32 11 -44 16 -30 84 -216 92 -254 7 -31 33 -51 33 -25 0 8 -19 61 -42 117 -23 57 -49 128 -58 160 -18 60 -36 84 -36 46z"/>
		<path d="M5828 5300 c0 -10 4 -27 10 -37 6 -10 21 -42 33 -71 12 -29 24 -47 26 -41 3 7 -12 47 -32 90 -19 42 -36 69 -37 59z"/>
		<path d="M5498 5258 c-3 -25 -9 -58 -13 -74 -4 -16 -2 -28 4 -28 6 0 14 26 18 59 4 33 10 66 13 73 3 8 1 15 -5 15 -6 0 -13 -21 -17 -45z"/>
		<path d="M5964 5296 c0 -6 19 -29 42 -51 23 -23 42 -37 42 -31 0 6 -19 29 -42 52 -23 22 -42 36 -42 30z"/>
		<path d="M3890 4914 c-58 -12 -147 -58 -196 -102 -42 -38 -103 -149 -103 -187 0 -11 -3 -32 -7 -45 -6 -23 -9 -24 -118 -21 -109 3 -111 4 -108 27 4 29 -2 29 -47 2 -46 -29 -44 -47 7 -73 39 -20 47 -19 43 3 0 4 46 8 104 8 94 0 105 -3 116 -22 6 -11 10 -27 9 -34 -5 -26 22 -96 55 -143 67 -97 202 -169 317 -169 125 0 250 68 320 174 31 46 40 70 59 154 l6 29 105 0 c98 0 105 -1 105 -21 0 -28 19 -26 58 4 l31 26 -36 37 c-43 45 -67 50 -57 11 l6 -26 -108 3 -109 3 -3 42 c-2 23 -4 57 -5 75 -1 19 -6 31 -13 28 -6 -2 -20 12 -31 30 -57 97 -154 166 -263 186 -69 13 -77 13 -137 1z m123 -22 c75 -16 81 -25 30 -45 -56 -22 -90 -21 -147 5 -60 27 -50 38 49 50 7 1 38 -4 68 -10z m-174 -27 c-3 -4 -10 -4 -13 0 -4 4 -1 7 7 7 7 0 10 -3 6 -7z m74 -52 c-4 -4 -10 -4 -14 0 -4 3 -1 7 7 7 8 0 11 -4 7 -7z m221 -10 c-3 -4 -12 -4 -20 -1 -8 3 -6 6 6 6 11 1 18 -2 14 -5z m55 -29 c-3 -2 -19 -7 -36 -11 l-31 -8 26 21 c16 13 30 17 36 11 5 -5 7 -11 5 -13z m-293 4 c13 -9 13 -11 -3 -12 -58 -5 -79 -1 -60 12 8 5 22 10 31 10 9 0 23 -5 32 -10z m195 -7 c-3 -4 -10 -4 -13 0 -4 3 -1 7 7 7 7 0 10 -4 6 -7z m75 -45 c14 -1 22 -6 18 -11 -4 -7 8 -12 29 -12 31 -1 29 -3 -18 -15 l-53 -13 53 -5 c47 -4 44 -5 -26 -8 -44 -2 -66 -5 -50 -8 38 -5 36 -23 -3 -23 -21 0 -31 5 -31 15 0 11 -11 16 -35 16 -26 0 -30 3 -18 11 20 13 23 13 -173 10 -93 -1 -166 1 -162 4 3 3 107 9 230 12 124 3 227 8 230 11 2 2 -101 5 -231 7 -201 1 -216 3 -104 8 111 4 203 5 344 1z m-485 -88 c24 -46 31 -49 105 -49 58 0 89 -12 89 -34 0 -9 -237 -10 -261 -1 -10 4 -12 16 -7 44 15 81 45 97 74 40z m243 27 c-39 -2 -102 -2 -141 0 -39 2 -7 3 71 3 77 0 109 -1 70 -3z m-60 -29 c9 -2 -20 -3 -63 -3 -45 0 -68 3 -53 7 23 6 78 5 116 -4z m89 5 c-3 -6 -11 -10 -17 -10 -6 0 -7 4 -4 10 4 6 11 11 17 11 6 0 8 -5 4 -11z m279 0 c-21 -13 -32 -13 -32 0 0 6 11 10 24 10 19 0 20 -2 8 -10z m49 -6 c-3 -4 -12 -4 -20 -1 -8 3 -6 6 6 6 11 1 18 -2 14 -5z m-254 -25 c-19 -7 -58 -3 -58 6 0 2 18 4 39 3 30 0 35 -2 19 -9z m54 3 c-4 -4 -10 -4 -14 0 -4 4 -1 7 7 7 8 0 11 -3 7 -7z m135 -3 c-8 -14 -48 -14 -68 0 -12 7 -4 10 29 10 28 0 43 -4 39 -10z m81 3 c-7 -3 -19 -3 -26 0 -7 3 -1 5 13 5 14 0 20 -2 13 -5z m-361 -26 c-19 -12 -61 -11 -61 1 0 11 40 19 61 13 11 -4 11 -6 0 -14z m167 6 c-4 -4 -13 -4 -20 -1 -9 3 -6 6 6 6 11 1 17 -2 14 -5z m218 -25 c0 -13 -19 -17 -97 -19 -54 -2 -97 -1 -97 1 0 3 2 13 6 22 9 24 188 20 188 -4z m-389 -121 c12 -40 27 -74 32 -76 11 -3 52 78 64 126 6 28 9 28 76 28 38 0 102 -3 141 -6 64 -6 71 -9 71 -30 0 -13 -18 -58 -40 -101 -67 -130 -176 -198 -318 -198 -158 0 -295 105 -340 261 -9 32 -16 61 -16 66 0 5 69 8 154 6 l155 -3 21 -73z m48 47 c0 -6 -8 -10 -16 -10 -9 0 -16 4 -16 10 0 6 7 11 16 11 8 0 16 -5 16 -11z"/>
		<path d="M3497 3750 c0 -26 4 -33 21 -33 12 0 21 7 21 16 0 9 4 14 10 10 6 -3 11 -15 11 -25 0 -21 -27 -37 -45 -26 -6 4 -14 0 -20 -8 -6 -11 -9 -9 -9 8 0 18 -5 22 -21 17 -17 -4 -19 -8 -10 -19 12 -15 5 -36 -12 -36 -5 0 -9 9 -9 21 0 14 -7 21 -21 21 -13 0 -22 7 -22 18 0 13 -2 15 -8 6 -4 -6 -17 -11 -28 -10 -16 1 -20 -4 -18 -22 3 -21 -1 -23 -38 -23 -25 0 -47 -7 -55 -17 -11 -13 -15 -13 -22 -2 -14 21 -30 -11 -31 -63 -4 -228 -4 -231 54 -255 22 -9 31 -20 31 -38 0 -49 80 -63 196 -33 35 9 42 14 38 31 -4 15 -9 17 -19 9 -10 -8 -15 -8 -19 2 -3 8 -6 5 -6 -7 -1 -20 -1 -20 -16 0 -14 19 -15 19 -22 2 -12 -29 -28 -8 -21 28 6 30 5 31 -9 14 -13 -16 -15 -16 -21 -3 -7 20 -34 22 -40 4 -3 -8 -7 -9 -11 -2 -9 14 69 79 134 112 63 31 126 33 126 4 0 -13 -14 -24 -42 -34 -52 -18 -47 -18 -47 1 0 21 -11 20 -28 -3 -20 -26 -18 -75 3 -83 10 -4 53 -2 97 4 52 8 86 8 99 1 28 -15 16 -34 -25 -40 -33 -5 -30 -7 39 -25 42 -11 83 -25 92 -31 9 -7 23 -40 32 -75 9 -34 21 -67 26 -73 16 -15 14 3 -9 71 l-19 60 30 0 c36 0 46 -21 50 -103 1 -7 5 -13 10 -13 5 0 7 24 4 53 l-5 54 30 -4 c29 -3 30 -5 29 -54 -2 -44 0 -49 17 -44 11 4 22 1 26 -5 5 -8 15 -7 33 5 21 14 25 14 25 1 0 -9 16 -17 42 -22 23 -4 44 -11 47 -15 3 -5 14 -7 25 -4 10 3 25 -2 32 -11 7 -9 20 -13 28 -10 8 3 18 -2 21 -11 4 -9 13 -17 20 -17 20 0 79 -32 79 -42 0 -6 7 -7 16 -4 8 4 16 2 16 -4 0 -5 17 -27 38 -48 l39 -39 24 23 c13 12 23 25 22 29 -1 3 4 17 11 30 18 31 1 30 -29 -3 -28 -29 -45 -34 -36 -10 5 12 2 14 -13 8 -14 -5 -11 2 11 32 16 21 24 39 18 39 -7 0 -18 -10 -25 -21 -7 -12 -17 -21 -21 -21 -13 0 -9 47 4 60 7 7 10 16 6 20 -4 4 -17 -6 -29 -21 -20 -26 -51 -41 -37 -18 3 5 0 11 -7 14 -10 3 -10 8 1 21 8 10 12 23 9 31 -3 8 -10 2 -18 -16 -8 -16 -17 -28 -22 -28 -12 0 -21 32 -14 53 3 11 1 20 -5 20 -5 0 -13 -10 -17 -22 -11 -35 -39 -4 -31 35 5 22 4 29 -4 24 -7 -4 -12 -13 -12 -21 0 -7 -6 -19 -14 -25 -24 -20 -42 10 -28 45 8 22 8 28 -2 25 -7 -3 -19 -25 -27 -49 -15 -44 -27 -50 -29 -14 -1 10 -3 32 -4 49 l-2 32 -12 -26 c-7 -15 -13 -28 -14 -30 -1 -1 -8 0 -17 3 -10 4 -14 17 -11 40 3 26 1 30 -7 18 -6 -9 -11 -24 -11 -35 0 -13 -7 -18 -19 -15 -14 2 -17 12 -15 39 4 33 2 34 -24 28 -19 -5 -29 -2 -33 10 -4 9 -12 14 -19 11 -7 -2 -20 -1 -28 4 -9 6 -17 5 -22 -3 -5 -8 -8 -1 -8 16 -1 31 9 33 131 31 34 -1 38 1 23 10 -12 7 -44 8 -81 4 l-61 -7 -7 33 c-7 31 -9 32 -26 16 -25 -23 -95 -17 -95 8 0 10 -5 18 -10 18 -6 0 -11 -7 -11 -15 0 -27 -44 -28 -72 0 -29 30 -39 32 -47 10 -4 -11 -20 -16 -46 -16 -41 1 -86 25 -72 39 4 5 62 10 129 12 91 2 132 -1 164 -13 82 -31 364 -44 364 -18 0 4 -22 17 -50 29 -42 19 -50 20 -53 7 -3 -11 -11 -14 -27 -9 -12 4 -29 7 -38 8 -9 0 -24 7 -34 16 -17 15 -18 15 -18 -1 0 -21 -12 -22 -31 -4 -10 8 -12 9 -8 0 4 -6 3 -15 -3 -19 -6 -3 -11 4 -12 18 0 22 -1 22 -8 4 -5 -11 -19 -21 -31 -23 -19 -3 -23 1 -24 25 0 19 -3 23 -8 13 -7 -16 -64 -23 -64 -8 0 5 -5 7 -10 3 -14 -8 -44 5 -37 17 3 5 1 9 -4 9 -6 0 -13 -9 -16 -21 -3 -14 -14 -21 -32 -21 -15 0 -27 5 -27 11 0 5 -8 10 -16 10 -30 0 -16 29 17 35 48 10 215 8 385 -4 173 -12 201 -5 154 39 -24 22 -42 30 -50 22 -1 -1 -14 6 -28 16 -45 31 -73 16 -37 -20 21 -22 10 -39 -17 -25 -13 8 -20 23 -20 45 -1 28 -29 81 -44 81 -2 0 -3 -31 -2 -68 2 -38 -2 -68 -7 -68 -6 0 -10 20 -10 44 0 37 -5 47 -26 57 -19 9 -27 9 -30 0 -3 -7 -6 -3 -6 9 -1 18 -33 58 -48 58 -2 0 -3 -33 -2 -73 2 -76 -17 -110 -23 -40 -1 21 -8 39 -14 39 -7 0 -9 -14 -5 -37 3 -20 1 -36 -4 -36 -6 0 -10 19 -10 42 0 27 -4 40 -11 36 -6 -4 -10 -15 -9 -24 3 -31 -3 -71 -8 -57 -6 15 -66 18 -66 3 0 -6 -5 -11 -11 -11 -6 0 -10 7 -10 15 0 12 -10 12 -56 -5 -32 -11 -70 -17 -90 -14 -19 3 -33 1 -33 -6 0 -6 -5 -11 -10 -11 -6 0 -12 20 -13 45 -1 30 -3 35 -5 16 -3 -19 -12 -29 -28 -31 -17 -3 -24 -13 -29 -40 -6 -31 -7 -32 -8 -9 -2 39 -57 58 -77 26 -12 -18 -10 -68 2 -75 6 -4 11 -11 11 -17 0 -6 -5 -8 -11 -4 -6 3 -10 -1 -10 -10 0 -9 -5 -16 -10 -16 -13 0 -22 43 -15 72 5 18 3 23 -5 18 -7 -4 -12 -27 -12 -50 0 -26 -5 -39 -11 -35 -6 3 -8 11 -5 17 4 6 -5 8 -20 5 -34 -6 -36 14 -6 41 11 10 21 25 21 32 0 17 55 57 77 57 9 0 17 4 17 10 0 18 115 93 155 100 21 4 52 19 69 33 17 14 44 29 61 32 33 7 41 25 11 25 -10 0 -23 3 -29 8 -5 5 -30 15 -55 22 -26 7 -53 16 -61 19 -10 4 -14 -4 -14 -27z m-130 -113 c-4 -4 -7 -1 -7 7 0 7 3 10 7 6 4 -3 4 -10 0 -13z m14 -45 c0 -13 -20 -26 -28 -18 -8 7 6 28 18 28 6 0 10 -5 10 -10z m514 -30 c-1 -10 -5 -28 -10 -39 -7 -17 -9 -13 -10 18 0 22 4 40 10 40 6 0 10 -9 10 -19z m127 -23 c0 -24 -5 -42 -11 -42 -6 0 -10 18 -10 42 0 23 4 42 10 42 6 0 11 -19 11 -42z m-678 21 c4 -6 -12 -19 -35 -29 -23 -10 -45 -27 -47 -38 -3 -11 -10 -17 -16 -13 -6 3 -8 -3 -5 -15 4 -12 1 -21 -6 -21 -19 0 -13 36 10 61 11 12 21 27 21 34 0 7 8 9 21 5 12 -4 21 -2 21 5 0 6 4 9 10 5 6 -3 11 -1 11 5 0 14 7 14 15 1z m601 -40 c-3 -10 -5 -2 -5 19 0 20 2 28 5 18 2 -10 2 -27 0 -37z m-25 19 c3 -12 1 -24 -4 -27 -6 -4 -10 6 -10 21 0 32 6 34 14 6z m-161 -221 c0 -6 -5 -10 -10 -10 -6 0 -11 4 -11 10 0 6 5 11 11 11 5 0 10 -5 10 -11z m-441 -23 c0 -17 -3 -20 -12 -12 -6 7 -8 17 -4 24 11 17 16 13 16 -12z m565 7 c2 -2 -3 -13 -10 -25 -11 -17 -25 -22 -57 -22 -51 0 -55 3 -49 37 5 25 7 26 59 20 30 -4 55 -9 57 -10z m126 -119 c3 -19 0 -24 -12 -19 -9 3 -18 0 -21 -7 -3 -7 -6 3 -6 23 -1 27 3 34 17 31 10 -2 20 -15 22 -28z"/>
		<path d="M3703 3656 c-10 -16 6 -97 18 -92 6 3 20 9 30 12 22 8 25 26 4 26 -9 0 -18 14 -22 31 -7 30 -20 40 -30 23z"/>
		<path d="M3480 3610 c-5 -7 -3 -9 4 -4 7 4 13 9 13 12 0 9 -10 4 -17 -8z"/>
		<path d="M3514 3584 c-4 -4 -7 -18 -7 -32 0 -21 3 -23 20 -14 10 6 22 8 25 5 3 -4 33 -3 67 2 l61 8 -45 13 c-25 7 -52 11 -60 8 -9 -4 -15 -1 -15 5 0 13 -35 16 -46 5z"/>
		<path d="M1504 3557 c-7 -9 -8 -33 -2 -71 8 -47 6 -60 -9 -78 -10 -12 -22 -27 -28 -34 -6 -7 -17 -21 -25 -30 -8 -10 -17 -40 -20 -66 -5 -46 -4 -48 12 -28 16 20 16 20 17 -5 0 -14 3 -22 7 -18 4 4 6 33 5 64 -1 31 2 60 8 63 18 11 14 -133 -4 -169 -9 -16 -16 -37 -16 -46 0 -21 29 -62 44 -62 7 0 5 7 -4 18 -29 33 -31 56 -7 88 19 28 22 41 16 102 -4 50 -2 77 9 96 8 14 15 43 15 62 1 42 21 32 24 -11 2 -27 20 -51 39 -51 6 0 11 -5 11 -12 0 -6 10 -25 22 -42 18 -25 20 -39 14 -88 -4 -32 -5 -57 -2 -57 10 0 78 111 87 141 l9 32 4 -30 c2 -16 -1 -45 -7 -63 -10 -29 -9 -31 3 -14 8 10 18 36 22 57 6 30 3 41 -11 51 -10 8 -23 24 -30 37 -15 30 -45 42 -33 13 30 -71 30 -73 12 -112 -23 -47 -37 -50 -37 -9 0 17 -10 42 -21 56 -11 14 -28 53 -38 88 -9 34 -24 70 -32 79 -8 9 -14 21 -14 27 0 21 -28 37 -40 22z"/>
		<path d="M1384 3489 c-2 -38 3 -91 8 -97 3 -2 13 3 22 13 15 15 16 23 5 59 -16 52 -32 64 -35 25z"/>
		<path d="M1820 3485 c-11 -11 -7 -59 7 -67 11 -7 23 60 13 70 -5 5 -14 4 -20 -3z"/>
		<path d="M1275 3422 c-4 -6 6 -35 21 -64 15 -29 27 -61 27 -72 0 -24 -43 -115 -54 -115 -14 0 -30 39 -30 74 0 48 -37 93 -99 120 -30 14 -60 32 -68 41 -8 9 -18 14 -23 11 -19 -11 -9 -39 28 -80 35 -39 36 -44 30 -93 -7 -47 -4 -56 19 -81 35 -38 43 -67 27 -101 -15 -35 -40 -32 -59 7 -7 16 -18 29 -24 29 -5 0 -9 9 -9 21 0 28 -19 63 -34 63 -7 0 -8 -11 -4 -29 5 -20 4 -26 -3 -19 -16 15 -31 94 -25 125 4 20 1 28 -12 28 -13 0 -17 -12 -17 -51 0 -55 17 -117 33 -117 5 0 9 -20 9 -43 0 -27 9 -56 27 -83 25 -37 26 -46 20 -113 -5 -49 -3 -81 5 -96 10 -20 62 -49 119 -68 11 -4 29 -29 41 -57 12 -27 23 -51 25 -53 4 -6 120 21 120 28 0 3 -9 15 -19 27 -33 37 -87 237 -64 237 9 0 20 -39 20 -77 0 -21 15 -47 47 -83 26 -29 48 -59 48 -67 0 -8 4 -14 10 -14 20 0 10 36 -21 82 -17 26 -32 52 -32 58 0 7 -4 5 -10 -4 -7 -11 -9 9 -8 60 2 45 -2 80 -9 87 -9 9 -11 -1 -7 -38 l4 -51 -18 37 c-10 20 -21 39 -25 42 -3 2 -10 14 -17 26 -6 11 -30 30 -52 42 -44 23 -56 52 -37 88 13 24 3 54 -32 97 -18 22 -20 35 -14 71 9 57 30 44 22 -14 -5 -37 -1 -49 21 -75 23 -26 26 -38 21 -74 -3 -27 -1 -50 7 -61 11 -15 13 -11 11 27 l-3 46 13 -44 c12 -42 58 -104 69 -93 3 3 -6 18 -20 32 -21 22 -26 40 -28 103 -3 60 -1 71 8 56 7 -11 10 -38 7 -61 -5 -36 -1 -46 30 -79 20 -21 40 -34 44 -30 4 5 3 10 -4 13 -29 10 -46 32 -53 66 l-7 37 23 -20 c12 -11 23 -29 23 -40 0 -10 5 -19 11 -19 6 0 8 5 4 11 -3 5 4 10 18 10 45 -1 110 -75 77 -88 -10 -3 -21 4 -28 18 -13 25 -43 50 -50 43 -3 -3 7 -17 21 -32 20 -21 26 -39 27 -90 2 -58 14 -104 14 -51 0 20 21 53 35 53 3 0 8 -19 12 -42 4 -24 19 -57 34 -74 14 -17 29 -44 34 -60 6 -26 12 -29 51 -29 43 0 44 1 44 35 0 44 -23 88 -58 114 -21 16 -31 37 -43 91 -11 57 -22 78 -50 105 -40 38 -58 105 -38 145 11 24 11 24 -10 -1 l-22 -27 7 61 c6 54 4 64 -22 101 -16 23 -40 49 -54 58 -14 10 -25 24 -25 32 0 20 -18 30 -27 15z m80 -151 c0 -14 -6 -49 -12 -79 -10 -47 -9 -58 10 -95 24 -45 14 -54 -26 -26 -42 29 -48 93 -14 148 11 18 21 43 21 56 0 12 4 22 10 22 6 0 11 -12 11 -26z m-164 -1 c3 -9 6 -29 6 -45 1 -15 8 -37 16 -48 18 -24 20 -48 5 -48 -6 0 -10 6 -10 14 0 8 -10 23 -21 33 -15 14 -21 33 -21 65 0 45 13 60 25 29z m37 -44 c0 -13 -4 -23 -10 -23 -6 0 -10 20 -10 44 1 35 3 40 10 24 5 -12 9 -32 10 -45z m161 -35 c-7 -65 10 -112 59 -165 23 -24 44 -58 47 -75 4 -18 9 -46 13 -64 3 -19 15 -37 29 -43 30 -14 72 -79 67 -107 -2 -20 -5 -18 -25 15 -13 21 -37 47 -54 57 -40 24 -62 61 -71 124 -4 28 -18 63 -30 79 -37 46 -69 113 -69 142 0 15 5 49 12 75 16 59 30 35 22 -38z m-255 -186 c20 -18 31 -33 24 -33 -8 0 -13 -11 -13 -24 1 -13 4 -18 6 -11 3 8 11 14 16 14 6 0 9 -7 5 -16 -7 -19 9 -74 32 -109 18 -28 27 -54 18 -54 -33 0 -76 76 -63 111 4 9 2 13 -4 10 -6 -4 -10 -22 -10 -40 0 -26 -3 -30 -14 -20 -7 8 -13 43 -14 83 0 55 -5 72 -22 86 -11 9 -25 26 -29 38 -5 13 -10 16 -13 8 -7 -21 -24 -16 -24 7 0 28 34 32 53 5 8 -12 32 -37 52 -55z m106 -74 c30 -47 42 -117 19 -117 -43 0 -69 49 -72 135 -2 55 10 51 53 -18z m-140 -23 c4 -89 25 -131 77 -157 22 -12 41 -26 41 -31 0 -6 -24 2 -52 16 -29 15 -53 34 -53 42 0 9 -4 13 -10 10 -20 -12 -33 38 -30 116 3 97 23 100 27 4z m202 -181 c0 -5 -5 -6 -10 -2 -6 3 -11 14 -11 24 0 15 2 16 11 2 5 -9 10 -20 10 -24z m-42 -18 c0 -6 -2 -10 -5 -10 -2 0 -7 4 -11 10 -3 6 -1 11 5 11 6 0 11 -5 11 -11z"/>
		<path d="M1764 3395 c0 -4 12 -20 27 -36 15 -16 32 -45 36 -64 l8 -35 1 43 c1 34 -5 48 -28 71 -29 28 -44 35 -44 21z"/>
		<path d="M1992 3383 c-31 -19 -60 -70 -60 -106 0 -13 -13 -35 -28 -51 -18 -18 -23 -29 -15 -32 9 -3 8 -10 -5 -24 -10 -11 -13 -20 -7 -20 7 0 15 5 19 11 3 6 25 23 47 37 39 24 42 29 42 79 0 59 14 61 25 5 8 -44 -14 -94 -49 -112 -13 -7 -37 -24 -53 -39 -16 -15 -28 -21 -28 -14 0 6 -8 12 -16 12 -17 0 -22 30 -8 48 4 5 1 4 -8 -3 -13 -12 -13 -18 -1 -48 27 -65 26 -107 -4 -162 -25 -46 -27 -57 -19 -103 11 -59 -7 -131 -41 -169 -14 -15 -17 -25 -9 -30 6 -4 14 2 18 12 4 11 16 32 26 47 11 15 20 34 20 42 0 8 18 37 41 65 36 43 40 54 32 77 -6 14 -10 39 -9 54 1 21 2 23 6 7 2 -11 9 -34 15 -49 14 -37 6 -72 -27 -111 -24 -29 -79 -128 -79 -143 0 -4 6 -6 15 -6 9 0 18 12 22 28 12 54 30 91 58 118 38 37 46 69 30 118 -16 49 -8 69 38 92 42 20 56 41 57 83 0 28 3 33 18 29 13 -4 26 5 43 29 20 30 24 47 21 102 -3 54 -7 68 -22 71 -14 2 -18 -4 -18 -27 -1 -16 -7 -41 -16 -55 -8 -15 -15 -31 -15 -35 -1 -12 24 13 39 40 12 20 12 20 13 -3 0 -13 -5 -23 -10 -23 -6 0 -11 -9 -11 -18 0 -10 -14 -33 -30 -50 -17 -18 -35 -46 -40 -64 -12 -35 -54 -64 -81 -54 -11 4 -17 18 -17 41 0 42 6 50 55 80 58 35 71 67 57 135 -9 47 -8 57 7 74 33 37 13 45 -38 15z m-51 -171 c-35 -26 -47 -12 -15 17 17 16 28 38 29 60 1 27 3 24 6 -12 3 -40 0 -50 -20 -65z m-43 -207 c-7 -7 -8 -38 -5 -74 6 -55 4 -64 -18 -85 -28 -26 -32 -23 -42 34 -6 32 -2 45 20 74 14 19 27 43 27 52 0 9 3 25 7 35 6 17 7 17 14 -2 4 -11 3 -26 -3 -34z"/>
		<path d="M6038 3168 c-96 -143 -124 -192 -112 -195 9 -2 17 -6 17 -10 0 -9 -31 -57 -42 -65 -4 -3 -41 -56 -83 -119 -57 -86 -73 -117 -65 -127 9 -10 -3 -34 -50 -96 -33 -46 -69 -96 -80 -112 -14 -23 -22 -27 -37 -18 -28 15 -30 14 -38 -28 -10 -55 5 -62 68 -35 53 22 70 42 38 42 -8 0 -15 5 -15 11 0 9 101 153 177 253 26 33 28 51 5 51 -16 0 -16 1 0 23 9 13 43 62 74 108 32 46 73 104 91 129 32 44 32 46 11 51 -27 7 -28 17 -6 35 17 15 204 278 204 288 0 3 -7 6 -15 6 -7 0 -72 -86 -142 -192z"/>
		<path d="M6635 3342 c-26 -32 -62 -86 -62 -93 0 -3 -14 -26 -31 -50 -82 -118 -137 -220 -126 -233 8 -10 -15 -51 -91 -163 -89 -132 -99 -152 -84 -163 21 -15 21 -20 3 -38 -7 -8 -39 -51 -70 -96 -39 -57 -61 -80 -72 -75 -18 7 -33 -12 -33 -44 0 -35 17 -39 63 -13 43 25 51 36 29 43 -8 3 -1 21 20 51 17 26 58 86 91 134 57 83 67 113 33 100 -9 -3 -15 -2 -15 2 0 6 61 94 111 157 9 12 25 38 35 58 11 20 29 46 41 57 28 25 29 48 2 48 -18 0 -15 8 23 64 95 136 166 255 157 263 -5 6 -15 1 -24 -9z"/>
		<path d="M1534 3308 c8 -33 5 -53 -12 -97 -13 -32 -19 -65 -15 -80 7 -29 57 -107 68 -107 10 0 32 59 32 86 0 29 -33 100 -39 84 -3 -7 2 -25 12 -39 12 -19 14 -35 8 -59 l-9 -33 -28 34 c-34 40 -35 61 -7 116 25 50 25 61 4 103 -22 44 -25 42 -14 -8z"/>
		<path d="M1904 3331 c-18 -57 -30 -78 -48 -88 -16 -8 -23 -8 -29 1 -5 9 -9 8 -14 -4 -13 -33 -25 -15 -20 29 3 28 0 49 -7 54 -8 4 -12 -11 -13 -49 0 -31 -4 -68 -8 -82 -6 -19 0 -38 21 -73 34 -55 33 -99 -2 -149 -24 -34 -27 -61 -14 -142 6 -40 -2 -68 -46 -153 -2 -4 1 -8 6 -8 6 0 21 24 34 54 18 42 21 66 17 108 -11 90 -10 97 19 139 35 52 36 103 1 151 -15 19 -26 47 -26 62 l1 27 14 -30 13 -31 6 33 c5 21 17 37 37 48 16 8 36 23 44 33 20 24 42 89 30 89 -5 0 -12 -9 -16 -19z"/>
		<path d="M1586 3318 c0 -8 3 -11 7 -7 3 4 3 10 0 14 -4 4 -7 1 -7 -7z"/>
		<path d="M7067 3252 c-37 -73 -53 -101 -106 -189 -40 -67 -48 -87 -39 -102 12 -19 11 -20 -115 -227 -50 -84 -55 -103 -24 -93 30 9 26 -9 -15 -67 -20 -28 -48 -75 -63 -104 -21 -43 -30 -52 -48 -48 -11 3 -21 2 -22 -3 0 -5 -2 -22 -4 -38 -6 -40 10 -45 53 -18 27 17 36 29 33 43 -4 12 24 69 73 151 74 123 90 171 51 156 -9 -3 -16 -4 -16 -1 0 3 31 54 68 114 38 60 68 114 68 120 0 7 10 20 22 31 24 22 27 47 5 47 -22 0 -21 1 26 79 23 37 42 71 42 75 0 4 12 22 26 41 26 34 36 78 17 78 -5 0 -19 -20 -32 -45z"/>
		<path d="M1582 3239 c-11 -27 -8 -33 5 -12 6 10 9 21 6 24 -3 3 -8 -3 -11 -12z"/>
		<path d="M3722 3186 c4 -17 7 -48 7 -69 -1 -41 15 -47 56 -23 17 10 18 16 8 37 l-12 24 0 -25 c-1 -33 -16 -18 -32 33 -15 48 -39 68 -27 23z"/>
		<path d="M1676 3175 c-4 -9 -2 -25 4 -36 16 -29 13 -65 -7 -93 -10 -14 -12 -22 -5 -18 17 11 44 65 36 73 -4 4 -1 7 5 7 12 0 24 -24 24 -49 0 -9 -10 -31 -22 -49 l-22 -33 27 29 c16 18 27 42 27 61 0 33 15 41 25 14 13 -33 6 -55 -30 -100 -41 -52 -48 -105 -20 -141 l17 -21 -8 21 c-5 12 -10 38 -13 58 -3 31 2 42 33 73 32 30 38 44 38 79 0 33 -6 50 -25 68 -15 13 -23 30 -20 38 3 8 0 15 -6 15 -6 0 -15 -13 -19 -28 -6 -26 -7 -27 -21 -8 -8 10 -11 28 -8 38 7 23 -1 25 -10 2z"/>
		<path d="M3654 3175 c0 -18 42 -109 51 -109 4 0 8 16 8 36 0 25 -4 34 -14 30 -7 -3 -13 -1 -13 4 0 15 -31 53 -32 39z"/>
		<path d="M3854 3135 c0 -23 3 -28 11 -20 8 9 8 17 0 31 -9 17 -11 16 -11 -11z"/>
		<path d="M3917 3141 c0 -12 4 -22 9 -22 11 0 9 26 -2 38 -4 4 -7 -3 -7 -16z"/>
		<path d="M1646 3107 c3 -14 -6 -35 -28 -63 -19 -23 -32 -50 -30 -60 4 -14 7 -12 16 9 6 15 23 45 38 66 14 22 24 47 21 55 -9 23 -24 18 -17 -7z"/>
		<path d="M3591 3126 c0 -14 52 -91 62 -91 16 0 24 39 13 60 -10 17 -11 17 -18 -2 -7 -18 -10 -17 -32 11 -14 17 -25 27 -25 22z"/>
		<path d="M3518 3097 c0 -9 5 -22 13 -29 10 -11 10 -15 0 -21 -24 -15 13 -53 44 -47 l27 5 -29 34 c-16 19 -35 43 -42 54 -10 16 -12 17 -13 4z"/>
		<path d="M2118 3063 c-25 -38 -41 -81 -30 -81 22 0 55 52 52 80 l-3 30 -19 -29z"/>
		<path d="M3581 3071 c0 -18 19 -41 27 -33 4 4 0 15 -10 25 -10 10 -17 13 -17 8z"/>
		<path d="M3471 3029 c10 -15 13 -26 6 -26 -6 0 -8 -8 -5 -17 8 -20 -7 -14 -41 15 -19 16 -26 4 -8 -14 6 -6 6 -16 0 -26 -8 -13 -12 -12 -30 4 -12 11 -23 14 -27 8 -3 -6 15 -24 40 -42 l47 -31 32 35 c22 25 38 34 50 29 11 -4 1 14 -23 42 -44 53 -70 67 -41 23z"/>
		<path d="M1511 3015 c7 -12 16 -24 22 -28 5 -3 17 -30 26 -60 10 -35 29 -65 53 -88 35 -32 37 -36 33 -92 -3 -51 -1 -59 15 -59 21 0 41 55 41 110 0 49 -39 162 -47 139 -4 -10 -5 -30 -1 -44 5 -19 1 -27 -15 -32 -30 -9 -50 11 -63 62 -17 66 -28 88 -53 101 -20 11 -21 10 -11 -9z"/>
		<path d="M1627 2976 c-5 -15 -9 -40 -9 -55 1 -20 4 -15 10 17 5 24 12 49 15 55 4 5 4 10 1 10 -4 0 -11 -12 -17 -27z"/>
		<path d="M1996 2977 c-21 -22 -23 -32 -17 -77 7 -49 5 -53 -36 -101 -58 -67 -54 -79 7 -20 50 49 52 54 45 143 -2 16 6 38 16 50 28 30 13 35 -15 5z"/>
		<path d="M2023 2956 c-3 -8 -1 -30 5 -47 16 -47 3 -97 -34 -133 -49 -46 -70 -83 -64 -119 6 -40 31 -42 39 -3 4 16 11 37 16 47 6 10 10 25 10 34 0 9 5 16 11 16 6 0 19 14 29 31 15 25 22 29 32 19 11 -11 21 -5 49 26 36 39 46 61 27 61 -6 0 -13 -5 -16 -11 -4 -5 -13 -7 -21 -4 -9 3 -16 -5 -21 -22 -9 -38 -25 -33 -26 8 0 49 -12 113 -22 113 -5 0 -11 -7 -14 -16z"/>
		<path d="M1350 2951 c5 -9 12 -32 16 -53 7 -37 7 -37 8 -5 1 18 -6 42 -15 53 -9 11 -13 13 -9 5z"/>
		<path d="M3875 2949 c-126 -21 -243 -81 -316 -164 l-43 -49 -79 -4 c-61 -3 -81 -1 -91 12 -14 18 -66 36 -55 19 4 -7 -21 -10 -75 -10 -217 4 -426 -10 -420 -26 2 -7 34 -10 82 -8 43 2 120 5 172 7 52 2 109 5 126 6 18 1 67 -5 111 -12 75 -13 118 -12 383 5 50 4 116 0 163 -8 58 -11 110 -12 199 -5 66 5 149 6 183 4 34 -3 71 -1 84 5 14 6 65 5 143 -4 85 -10 140 -11 189 -4 75 11 114 11 333 -1 112 -6 150 -5 150 4 0 8 -43 14 -134 19 -187 9 -308 11 -339 5 -21 -4 -26 -1 -23 14 4 23 -2 23 -51 -5 -39 -21 -45 -22 -117 -9 -71 13 -82 18 -139 71 -111 103 -295 161 -436 138z m65 -16 c-7 -3 -19 -3 -26 0 -7 3 -1 5 13 5 14 0 20 -2 13 -5z m-50 -24 c4 -7 -14 -10 -49 -9 l-56 1 48 8 c25 4 48 8 49 8 1 1 5 -3 8 -8z m96 3 c-3 -4 -10 -4 -13 0 -4 4 -1 7 7 7 7 0 10 -3 6 -7z m69 -19 c47 3 69 2 56 -4 -12 -4 -87 -9 -168 -9 -115 -1 -133 1 -81 7 36 4 68 11 72 14 3 4 15 2 25 -3 11 -6 54 -8 96 -5z m-272 -12 c-8 -3 -19 -3 -27 0 -7 2 -1 5 14 5 14 0 20 -3 13 -5z m383 0 c-4 -3 -13 -4 -20 -1 -9 4 -6 6 6 7 11 0 17 -2 14 -6z m-34 -25 c4 -7 -34 -10 -100 -10 -58 0 -104 3 -101 7 7 12 194 14 201 3z m65 -6 c-3 -4 -12 -4 -20 -1 -8 3 -6 6 6 6 11 1 18 -2 14 -5z m-430 -23 c-21 -2 -59 -2 -84 0 -25 3 -7 4 39 4 46 0 67 -1 45 -4z m157 0 c-21 -2 -57 -2 -78 0 -22 3 -4 4 39 4 43 0 61 -1 39 -4z m326 -10 c5 -15 -45 -19 -54 -6 -2 5 -49 10 -103 12 -54 2 -100 5 -102 8 -3 3 53 3 125 2 92 -2 131 -7 134 -16z m-285 -16 c4 -4 -28 -8 -70 -9 l-78 0 50 -17 c61 -20 64 -31 8 -26 -24 2 -40 8 -37 13 11 18 -118 28 -177 14 -24 -5 -30 -4 -26 8 3 8 19 14 38 15 18 0 35 3 39 6 9 9 243 5 253 -4z m22 -26 c-10 -2 -28 -2 -42 0 -13 3 -4 5 19 5 23 0 34 -2 23 -5z m73 1 c-4 -4 -10 -4 -14 0 -4 3 -1 7 7 7 8 0 11 -4 7 -7z m53 0 c-3 -3 -12 -4 -20 -1 -8 4 -6 6 6 7 11 0 18 -2 14 -6z m187 -4 c-4 -6 -11 -10 -17 -10 -6 0 -8 4 -4 10 3 6 11 11 17 11 6 0 7 -5 4 -11z m-636 -14 c-3 -3 -28 -7 -57 -10 -36 -4 -44 -4 -26 2 26 9 91 15 83 8z m316 -7 c-21 -13 -42 -13 -42 0 0 6 12 10 28 10 23 0 26 -2 14 -10z m183 0 c4 -6 -1 -10 -10 -10 -9 0 -16 4 -16 10 0 6 4 11 10 11 5 0 13 -5 16 -11z m82 -7 c-13 -3 -35 -3 -48 0 -13 2 -2 4 24 4 26 0 37 -2 24 -4z"/>
		<path d="M914 2921 c0 -24 84 -107 108 -107 9 0 18 1 18 3 0 6 -116 123 -121 123 -3 0 -5 -8 -5 -19z"/>
		<path d="M4510 2904 c-44 -38 -44 -39 6 -90 14 -15 18 -15 42 -1 15 9 25 23 22 31 -2 7 5 20 15 28 18 13 18 15 2 15 -10 0 -21 -4 -24 -10 -10 -16 -23 -13 -31 7 -4 9 1 26 11 37 29 32 2 21 -43 -17z"/>
		<path d="M3329 2919 c0 -5 10 -15 23 -22 15 -9 19 -15 10 -18 -10 -3 -11 -7 -1 -19 17 -21 -5 -19 -38 2 -14 9 -31 15 -38 13 -20 -7 59 -50 91 -50 23 0 27 3 23 20 -3 13 1 21 15 25 11 3 20 11 20 17 0 8 -9 10 -23 5 -18 -6 -21 -4 -16 11 5 13 2 16 -13 11 -11 -3 -23 -1 -27 5 -8 13 -26 14 -26 0z"/>
		<path d="M998 2898 c0 -13 29 -27 38 -18 3 3 -5 11 -17 18 -15 8 -21 8 -21 0z"/>
		<path d="M2338 2870 c-4 -4 -7 -14 -7 -22 0 -23 99 -13 103 11 3 15 -4 18 -43 18 -25 0 -49 -3 -53 -7z"/>
		<path d="M2485 2851 c-6 -15 1 -17 46 -14 67 4 73 23 9 27 -37 3 -50 -1 -55 -13z"/>
		<path d="M2630 2855 c-8 -13 12 -30 35 -30 20 -1 55 20 55 31 0 15 -82 13 -90 -1z"/>
		<path d="M2764 2860 c-27 -11 -11 -25 29 -25 30 0 42 4 42 16 0 15 -41 20 -71 9z"/>
		<path d="M2863 2852 c-4 -11 5 -16 30 -19 34 -4 58 6 58 25 0 15 -82 9 -88 -6z"/>
		<path d="M2989 2860 c-4 -4 -7 -12 -7 -17 0 -13 53 -5 55 8 3 12 -37 20 -48 9z"/>
		<path d="M4864 2856 c-35 -15 -28 -31 13 -31 39 0 59 17 36 32 -17 11 -19 11 -49 -1z"/>
		<path d="M1355 2839 c1 -12 3 -14 7 -6 3 8 2 17 -1 20 -4 4 -6 -3 -6 -14z"/>
		<path d="M1418 2846 c0 -9 14 -37 31 -62 17 -26 32 -55 32 -65 0 -11 4 -22 10 -26 24 -14 8 36 -31 100 -24 38 -42 61 -42 53z"/>
		<path d="M4948 2847 c-11 -7 -11 -11 0 -21 11 -8 26 -9 50 -1 24 6 40 6 46 -1 14 -13 66 -13 75 1 4 6 5 14 2 17 -10 10 -160 14 -173 5z"/>
		<path d="M5147 2842 c-17 -19 -5 -28 37 -28 29 0 35 4 33 18 -5 23 -54 30 -70 10z"/>
		<path d="M5241 2838 c-16 -11 -16 -13 0 -19 9 -3 42 -5 73 -3 42 2 57 7 57 19 0 20 -104 22 -130 3z"/>
		<path d="M5413 2841 c-21 -15 -21 -15 -1 -23 20 -8 55 8 51 23 -3 16 -29 16 -50 0z"/>
		<path d="M3231 2834 c13 -14 49 -35 86 -51 18 -8 29 -8 39 0 21 18 6 34 -27 27 -18 -3 -39 2 -59 15 -33 22 -58 28 -39 9z"/>
		<path d="M4610 2815 c-15 -11 -38 -22 -52 -24 -28 -4 -44 -29 -18 -29 27 0 112 45 112 59 0 19 -11 17 -42 -6z"/>
		<path d="M1397 2799 c0 -10 11 -33 26 -50 14 -17 26 -40 26 -51 0 -11 5 -20 11 -20 19 0 10 26 -27 84 -21 33 -36 49 -36 37z"/>
		<path d="M1725 2769 c-6 -24 -14 -54 -18 -65 -7 -20 -7 -20 8 -3 14 18 33 101 25 109 -2 2 -9 -16 -15 -41z"/>
		<path d="M3920 2279 c-21 -40 -21 -41 -2 -46 17 -4 20 -12 15 -40 -3 -20 -8 -119 -12 -221 -4 -136 -3 -187 7 -193 25 -15 30 27 30 240 0 186 3 218 16 218 9 0 16 4 16 11 0 16 -31 73 -40 72 -4 0 -17 -18 -30 -41z"/>
		<path d="M3591 1937 c0 -10 10 -15 27 -15 14 0 40 -8 58 -17 27 -14 34 -14 61 0 27 14 31 14 47 -3 9 -10 17 -24 17 -31 0 -7 5 -12 11 -12 18 0 11 48 -12 68 -18 17 -26 18 -54 7 -27 -10 -39 -9 -64 3 -41 21 -91 21 -91 0z"/>
		<path d="M3434 1911 c0 -6 4 -10 10 -10 6 0 11 4 11 10 0 6 -5 11 -11 11 -6 0 -10 -5 -10 -11z"/>
		<path d="M3371 1901 c0 -6 5 -11 11 -11 6 0 8 5 4 11 -3 5 -8 10 -11 10 -2 0 -4 -5 -4 -10z"/>
		<path d="M3633 1901 c0 -8 3 -11 7 -8 4 4 4 11 0 15 -4 3 -7 0 -7 -7z"/>
		<path d="M3869 1901 c-3 -6 1 -11 10 -11 9 0 17 5 17 11 0 5 -5 10 -10 10 -6 0 -13 -5 -17 -10z"/>
		<path d="M4043 1907 c0 -3 14 -14 32 -23 30 -16 32 -15 29 3 -3 11 -15 20 -33 22 -16 2 -28 1 -28 -2z"/>
		<path d="M3166 1887 c-22 -71 -27 -97 -29 -165 -2 -90 16 -127 82 -162 20 -11 36 -24 36 -28 0 -16 72 -22 112 -9 22 7 55 24 74 38 18 13 38 25 43 25 6 0 12 3 14 8 2 4 18 18 34 31 l31 24 32 -30 c52 -48 109 -86 127 -86 25 0 10 18 -40 49 -64 39 -101 77 -94 95 5 13 3 14 -19 1 -14 -7 -43 -29 -64 -47 -26 -23 -45 -32 -60 -28 -16 4 -21 2 -17 -9 4 -10 -7 -21 -31 -33 -45 -21 -65 -22 -73 -4 -5 10 -7 10 -12 0 -10 -21 -28 -16 -76 19 -65 48 -77 77 -69 169 4 42 13 93 21 112 18 44 18 44 -2 44 -8 0 -18 -6 -20 -14z"/>
		<path d="M3245 1890 c0 -8 3 -11 6 -7 4 4 4 10 0 14 -3 4 -6 1 -6 -7z"/>
		<path d="M3465 1880 c0 -6 5 -11 11 -11 5 0 10 5 10 11 0 5 -5 10 -10 10 -6 0 -11 -5 -11 -10z"/>
		<path d="M4269 1881 c-7 -11 17 -75 28 -75 16 0 21 33 10 58 -12 26 -28 33 -38 17z"/>
		<path d="M3518 1863 c0 -9 4 -13 10 -10 6 4 8 11 5 17 -9 14 -15 12 -15 -7z"/>
		<path d="M3696 1869 c0 -8 3 -11 7 -7 4 4 4 10 0 14 -4 4 -7 1 -7 -7z"/>
		<path d="M3406 1851 c3 -3 10 -3 13 0 4 4 1 8 -6 8 -8 0 -11 -4 -7 -8z"/>
		<path d="M3990 1848 c0 -6 5 -10 11 -10 5 0 10 4 10 10 0 6 -5 11 -10 11 -6 0 -11 -5 -11 -11z"/>
		<path d="M4132 1848 c-4 -6 -2 -10 4 -10 6 0 12 4 12 10 0 6 -3 11 -5 11 -3 0 -8 -5 -11 -11z"/>
		<path d="M3217 1841 c3 -4 10 -4 13 0 4 4 1 7 -6 7 -8 0 -11 -3 -7 -7z"/>
		<path d="M3269 1841 c4 -4 10 -4 14 0 4 4 1 7 -7 7 -8 0 -11 -3 -7 -7z"/>
		<path d="M3329 1838 c0 -6 4 -11 10 -11 6 0 11 5 11 11 0 5 -5 10 -11 10 -6 0 -10 -5 -10 -10z"/>
		<path d="M3570 1838 c0 -6 5 -11 11 -11 5 0 10 5 10 11 0 5 -5 10 -10 10 -6 0 -11 -5 -11 -10z"/>
		<path d="M3633 1837 c0 -6 5 -8 11 -5 5 4 10 9 10 11 0 3 -5 5 -10 5 -6 0 -11 -5 -11 -11z"/>
		<path d="M4062 1841 c7 -3 16 -3 20 1 3 3 -3 6 -14 5 -12 0 -15 -3 -6 -6z"/>
		<path d="M3463 1830 c8 -3 17 -2 20 1 4 4 -3 6 -14 6 -12 -1 -14 -3 -6 -7z"/>
		<path d="M3679 1820 c3 -4 10 -4 13 0 4 4 1 7 -6 7 -8 0 -11 -3 -7 -7z"/>
		<path d="M3297 1806 c0 -6 5 -10 11 -10 5 0 10 4 10 10 0 6 -5 11 -10 11 -6 0 -11 -5 -11 -11z"/>
		<path d="M4246 1809 c3 -3 10 -3 14 0 3 4 0 8 -7 8 -8 0 -11 -4 -7 -8z"/>
		<path d="M3365 1796 c-3 -6 -1 -11 5 -11 6 0 11 5 11 11 0 5 -2 10 -5 10 -2 0 -7 -5 -11 -10z"/>
		<path d="M3444 1796 c0 -6 5 -11 11 -11 5 0 10 5 10 11 0 5 -5 10 -10 10 -6 0 -11 -5 -11 -10z"/>
		<path d="M3528 1796 c0 -8 3 -11 7 -8 4 4 4 11 0 15 -4 3 -7 0 -7 -7z"/>
		<path d="M3738 1796 c0 -6 5 -11 11 -11 5 0 10 5 10 11 0 5 -5 10 -10 10 -6 0 -11 -5 -11 -10z"/>
		<path d="M3974 1781 c-40 -22 -42 -26 -49 -86 -10 -87 -4 -102 54 -135 37 -22 57 -43 78 -84 15 -31 28 -61 28 -68 0 -44 85 -147 135 -163 11 -4 20 -13 18 -20 -2 -7 -1 -9 1 -4 7 11 56 9 56 -2 0 -6 -7 -14 -15 -19 -15 -8 -21 -26 -18 -53 0 -7 11 -13 24 -13 12 0 19 -3 16 -7 -4 -4 1 -13 12 -21 11 -7 22 -27 26 -43 3 -17 21 -45 40 -63 24 -24 29 -35 19 -38 -9 -3 -29 -9 -46 -14 -22 -7 -34 -20 -43 -46 -14 -42 -25 -43 -47 -6 -15 27 -70 69 -108 83 -10 4 -29 30 -42 57 -16 34 -31 52 -49 56 -19 5 -26 13 -23 27 3 16 1 18 -10 7 -11 -10 -17 -9 -33 5 -18 17 -18 18 10 47 83 87 -33 208 -128 133 -23 -18 -32 -20 -53 -11 -15 7 -26 16 -26 21 0 5 -14 28 -32 49 -18 24 -29 48 -26 58 8 23 -4 53 -20 53 -26 0 -5 -88 32 -131 20 -23 36 -44 36 -48 0 -4 11 -13 26 -19 20 -9 26 -20 26 -47 0 -43 32 -76 85 -85 21 -4 49 -19 63 -34 14 -14 39 -33 57 -42 21 -9 37 -28 46 -51 12 -35 47 -67 111 -101 44 -24 50 -82 11 -116 -14 -13 -31 -38 -36 -56 -5 -17 -12 -40 -16 -49 -13 -30 28 -33 79 -6 36 19 47 31 50 56 4 37 19 57 44 57 29 0 34 31 9 58 l-22 24 22 22 c12 12 27 21 32 22 14 0 32 -36 32 -63 0 -24 21 -28 54 -10 36 19 16 80 -43 132 -33 29 -53 56 -57 78 -4 18 -23 49 -43 68 -43 40 -45 47 -16 47 15 0 21 7 21 24 0 31 -19 49 -50 49 -57 0 -141 67 -160 128 -32 102 -96 198 -133 198 -22 0 -46 43 -35 63 6 11 11 37 11 59 0 33 5 43 27 53 22 10 32 10 53 -4 23 -15 25 -22 19 -58 -5 -29 -2 -48 10 -67 24 -36 43 -32 66 14 12 22 25 39 30 39 5 0 23 -27 39 -60 16 -33 37 -60 45 -60 21 0 19 8 -11 47 -14 18 -29 46 -32 62 -11 44 -68 63 -68 23 0 -14 -33 -48 -46 -48 -4 0 -6 21 -5 46 2 34 -3 53 -18 70 -35 39 -50 41 -94 16z m463 -834 c14 -10 18 -65 4 -65 -5 0 -10 9 -10 20 0 12 -5 24 -10 27 -13 8 -15 27 -3 26 4 0 13 -3 19 -8z m-111 -107 c0 -6 -7 -10 -14 -10 -8 0 -22 -11 -31 -24 -19 -29 -32 -20 -23 17 6 22 14 28 38 28 16 0 30 -5 30 -11z m-75 -65 c12 -7 18 -20 15 -31 -6 -20 -34 -28 -34 -9 0 6 -5 11 -10 11 -5 0 -9 -6 -8 -14 1 -7 -3 -13 -9 -13 -14 0 -7 50 9 60 16 10 14 11 37 -4z"/>
		<path d="M3234 1785 c0 -6 5 -10 11 -10 6 0 8 4 5 10 -4 6 -9 11 -11 11 -3 0 -5 -5 -5 -11z"/>
		<path d="M3581 1785 c0 -6 7 -10 15 -10 9 0 16 4 16 10 0 6 -7 11 -16 11 -8 0 -15 -5 -15 -11z"/>
		<path d="M3187 1764 c-4 -6 -2 -10 4 -10 6 0 12 4 12 10 0 6 -3 11 -5 11 -3 0 -8 -5 -11 -11z"/>
		<path d="M3308 1754 c0 -6 4 -11 10 -11 6 0 11 5 11 11 0 5 -5 10 -11 10 -6 0 -10 -5 -10 -10z"/>
		<path d="M3423 1754 c0 -6 5 -11 11 -11 6 0 8 5 5 11 -4 5 -9 10 -11 10 -3 0 -5 -5 -5 -10z"/>
		<path d="M3486 1754 c0 -6 5 -11 11 -11 6 0 8 5 5 11 -4 5 -9 10 -11 10 -3 0 -5 -5 -5 -10z"/>
		<path d="M4132 1754 c-3 -5 -1 -13 5 -16 6 -4 11 1 11 10 0 18 -7 21 -16 6z"/>
		<path d="M4200 1753 c0 -6 5 -8 11 -5 5 4 10 9 10 11 0 3 -5 5 -10 5 -6 0 -11 -5 -11 -11z"/>
		<path d="M4253 1754 c0 -8 3 -11 7 -8 3 4 3 11 0 15 -4 3 -7 0 -7 -7z"/>
		<path d="M3689 1746 c4 -3 10 -3 14 0 4 4 1 8 -7 8 -8 0 -11 -4 -7 -8z"/>
		<path d="M3255 1733 c0 -6 5 -11 11 -11 5 0 10 5 10 11 0 5 -5 10 -10 10 -6 0 -11 -5 -11 -10z"/>
		<path d="M3522 1732 c-3 -6 -4 -14 -1 -17 9 -9 39 5 39 17 0 14 -29 14 -38 0z"/>
		<path d="M3584 1725 c4 -3 10 -3 14 0 4 4 1 8 -7 8 -8 0 -11 -4 -7 -8z"/>
		<path d="M3742 1725 c3 -3 10 -3 13 0 4 4 1 8 -6 8 -8 0 -11 -4 -7 -8z"/>
		<path d="M3206 1715 c4 -4 10 -4 14 0 4 4 1 7 -7 7 -8 0 -11 -3 -7 -7z"/>
		<path d="M3638 1712 c-3 -6 -1 -11 5 -11 6 0 11 5 11 11 0 5 -2 10 -5 10 -2 0 -7 -5 -11 -10z"/>
		<path d="M4278 1685 c-17 -35 -17 -37 7 -62 14 -14 28 -23 33 -20 14 9 8 46 -8 46 -19 0 -19 9 0 35 15 20 13 38 -5 38 -5 0 -17 -17 -27 -37z"/>
		<path d="M3448 1704 c3 -3 10 -3 13 0 4 4 1 8 -6 8 -8 0 -11 -4 -7 -8z"/>
		<path d="M3313 1690 c3 -6 11 -8 16 -4 15 9 12 15 -6 15 -9 0 -14 -5 -10 -11z"/>
		<path d="M3497 1691 c0 -6 4 -11 10 -11 6 0 11 5 11 11 0 5 -5 10 -11 10 -6 0 -10 -5 -10 -10z"/>
		<path d="M3890 1690 c-10 -16 4 -27 17 -13 8 7 8 13 1 18 -6 3 -14 1 -18 -5z"/>
		<path d="M4226 1690 c4 -6 11 -8 17 -4 14 9 12 15 -7 15 -9 0 -13 -5 -10 -11z"/>
		<path d="M3689 1683 c4 -3 10 -3 14 0 4 4 1 8 -7 8 -8 0 -11 -4 -7 -8z"/>
		<path d="M3255 1670 c0 -8 3 -11 7 -8 4 4 4 11 0 15 -4 3 -7 0 -7 -7z"/>
		<path d="M3402 1670 c0 -6 5 -11 11 -11 5 0 10 5 10 11 0 5 -5 10 -10 10 -6 0 -11 -5 -11 -10z"/>
		<path d="M3738 1670 c0 -6 5 -11 11 -11 6 0 8 5 5 11 -4 5 -9 10 -11 10 -3 0 -5 -5 -5 -10z"/>
		<path d="M3353 1652 c4 -4 10 -4 14 0 4 4 1 7 -7 7 -8 0 -11 -3 -7 -7z"/>
		<path d="M3631 1652 c8 -3 17 -3 20 1 4 3 -3 6 -14 5 -12 0 -14 -3 -6 -6z"/>
		<path d="M3287 1638 c0 -6 7 -10 15 -10 9 0 16 1 16 4 0 2 -7 6 -16 10 -8 3 -15 1 -15 -4z"/>
		<path d="M4153 1615 c-10 -40 -3 -77 16 -77 21 0 26 58 6 84 -15 21 -15 21 -22 -7z"/>
		<path d="M3234 1616 c0 -6 5 -8 11 -4 5 3 10 8 10 11 0 2 -5 5 -10 5 -6 0 -11 -6 -11 -12z"/>
		<path d="M3791 1607 c0 -8 3 -11 6 -8 4 4 4 11 0 15 -3 3 -6 0 -6 -7z"/>
		<path d="M3875 1606 c0 -6 4 -8 10 -5 6 4 11 9 11 11 0 3 -5 5 -11 5 -6 0 -10 -5 -10 -11z"/>
		<path d="M3371 1586 c0 -6 5 -11 11 -11 6 0 8 5 4 11 -3 5 -8 10 -11 10 -2 0 -4 -5 -4 -10z"/>
		<path d="M3269 1578 c4 -3 10 -3 14 0 4 4 1 8 -7 8 -8 0 -11 -4 -7 -8z"/>
		<path d="M3822 1554 c0 -6 5 -10 11 -10 6 0 8 4 5 10 -4 6 -9 11 -11 11 -3 0 -5 -5 -5 -11z"/>
		<path d="M3927 1554 c0 -6 5 -10 11 -10 5 0 10 4 10 10 0 6 -5 11 -10 11 -6 0 -11 -5 -11 -11z"/>
		<path d="M3763 1536 c3 -3 10 -3 13 0 4 4 1 8 -6 8 -8 0 -11 -4 -7 -8z"/>
		<path d="M3880 1523 c-3 -5 -1 -13 5 -16 6 -4 11 1 11 10 0 18 -7 21 -16 6z"/>
		<path d="M3985 1523 c3 -6 8 -11 11 -11 2 0 5 5 5 11 0 5 -6 10 -12 10 -6 0 -8 -5 -4 -10z"/>
		<path d="M3555 1455 c-33 -56 -37 -126 -8 -141 26 -14 42 -2 55 41 10 37 2 147 -11 147 -5 0 -21 -21 -36 -47z m26 -64 c0 -8 -5 -15 -11 -15 -6 0 -10 7 -10 15 0 9 4 16 10 16 6 0 11 -7 11 -16z m-11 -36 c0 -6 -5 -11 -10 -11 -6 0 -11 5 -11 11 0 5 5 10 11 10 5 0 10 -5 10 -10z"/>
		<path d="M3791 1491 c0 -6 4 -10 10 -10 6 0 11 4 11 10 0 6 -5 11 -11 11 -6 0 -10 -5 -10 -11z"/>
		<path d="M3838 1471 c-3 -6 -1 -13 5 -17 6 -3 11 1 11 10 0 19 -7 21 -16 7z"/>
		<path d="M4025 1463 c4 -4 10 -4 14 0 4 4 1 7 -7 7 -8 0 -11 -3 -7 -7z"/>
		<path d="M3771 1429 c2 -7 8 -13 12 -12 12 1 10 15 -4 20 -6 2 -10 -2 -8 -8z"/>
		<path d="M3962 1410 c4 -3 10 -3 14 0 4 4 1 8 -7 8 -8 0 -11 -4 -7 -8z"/>
		<path d="M4027 1397 c3 -6 8 -11 11 -11 2 0 5 5 5 11 0 5 -6 10 -12 10 -6 0 -8 -5 -4 -10z"/>
		<path d="M3983 1368 c4 -3 10 -3 14 0 4 4 1 8 -7 8 -8 0 -11 -4 -7 -8z"/>
		<path d="M3822 1344 c0 -8 3 -11 7 -7 4 4 4 10 0 14 -4 4 -7 1 -7 -7z"/>
		<path d="M4057 1337 c3 -4 10 -4 13 0 4 4 1 7 -6 7 -8 0 -11 -3 -7 -7z"/>
		<path d="M2890 1284 c-24 -14 -44 -30 -44 -34 0 -5 17 -20 38 -33 36 -22 39 -23 52 -5 12 17 33 18 247 15 227 -4 235 -3 235 17 0 20 -8 20 -244 17 -138 -2 -244 1 -244 6 0 6 5 15 11 21 23 23 -7 20 -51 -4z"/>
		<path d="M4130 1274 c4 -4 10 -4 14 0 4 4 1 7 -7 7 -8 0 -11 -3 -7 -7z"/>
		<path d="M4930 1254 c-10 -15 -33 -16 -241 -5 -236 12 -266 9 -237 -26 12 -14 41 -15 242 -9 225 7 228 7 240 -15 12 -22 13 -22 48 -5 45 21 46 34 5 58 -40 23 -44 23 -57 2z"/>
		<path d="M3523 1229 c-11 -12 -30 -21 -43 -21 -36 0 -53 -27 -36 -58 10 -20 11 -42 2 -102 -10 -66 -9 -82 6 -113 23 -48 51 -51 99 -11 38 31 38 32 39 116 0 47 4 90 7 96 10 16 -5 80 -23 97 -21 21 -28 21 -51 -4z m44 -28 c4 -11 -1 -23 -13 -32 -17 -12 -18 -14 -2 -14 28 0 25 -80 -3 -87 -24 -6 -28 -28 -5 -28 8 0 16 -5 16 -10 0 -6 -8 -17 -16 -26 -9 -8 -16 -18 -16 -21 0 -4 7 -6 16 -6 25 0 18 -15 -17 -35 -45 -25 -62 -10 -62 57 0 44 3 51 21 51 12 0 21 5 21 11 0 5 -4 10 -9 10 -5 0 -12 15 -15 34 -3 19 -7 44 -9 55 -3 15 3 22 19 25 13 1 29 10 36 18 16 20 30 19 38 -2z"/>
		<path d="M3497 1155 c0 -8 3 -11 6 -7 4 4 4 10 0 14 -3 4 -6 1 -6 -7z"/>
		<path d="M3518 1113 c0 -6 4 -10 10 -10 6 0 11 4 11 10 0 6 -5 11 -11 11 -6 0 -10 -5 -10 -11z"/>
		<path d="M3481 987 c-4 -6 1 -10 10 -10 9 0 16 4 16 10 0 6 -4 11 -10 11 -5 0 -13 -5 -16 -11z"/>
		<path d="M4169 1229 c0 -6 4 -11 10 -11 6 0 11 5 11 11 0 5 -5 10 -11 10 -6 0 -10 -5 -10 -10z"/>
		<path d="M4137 1176 c0 -8 3 -11 7 -7 4 4 4 10 0 14 -4 4 -7 1 -7 -7z"/>
		<path d="M4205 1166 c4 -6 9 -11 11 -11 3 0 5 5 5 11 0 5 -5 10 -11 10 -6 0 -8 -5 -5 -10z"/>
		<path d="M4095 1124 c0 -6 5 -11 11 -11 5 0 10 5 10 11 0 5 -5 10 -10 10 -6 0 -11 -5 -11 -10z"/>
		<path d="M4169 1113 c0 -8 3 -11 7 -7 3 4 3 10 0 14 -4 4 -7 1 -7 -7z"/>
		<path d="M4232 1091 c0 -6 4 -8 10 -4 6 3 11 8 11 11 0 2 -5 5 -11 5 -6 0 -10 -6 -10 -12z"/>
		<path d="M4137 1061 c0 -6 5 -11 11 -11 5 0 10 5 10 11 0 5 -5 10 -10 10 -6 0 -11 -5 -11 -10z"/>
		<path d="M4179 1008 c0 -6 5 -10 11 -10 5 0 10 4 10 10 0 6 -5 11 -10 11 -6 0 -11 -5 -11 -11z"/>
		<path d="M4263 1008 c0 -8 3 -11 7 -7 4 4 4 10 0 14 -4 4 -7 1 -7 -7z"/>
		<path d="M4295 977 c0 -6 5 -11 11 -11 6 0 8 5 4 11 -3 5 -8 10 -11 10 -2 0 -4 -5 -4 -10z"/>
		<path d="M3924 718 c-4 -4 -7 -16 -7 -27 0 -12 -8 -19 -20 -19 -28 0 -46 -25 -42 -60 3 -22 10 -30 30 -33 14 -2 30 -9 34 -16 4 -6 8 -86 8 -178 0 -161 -1 -166 -21 -159 -26 8 -26 8 0 -46 22 -44 53 -59 53 -25 0 11 6 29 15 40 21 28 20 36 -7 36 -22 0 -22 2 -15 112 3 61 7 133 7 158 0 43 1 46 23 39 13 -4 32 -16 42 -26 10 -11 25 -17 33 -14 24 9 61 68 56 89 -3 11 1 24 9 28 8 5 18 23 21 41 9 42 -10 49 -63 24 -22 -11 -56 -23 -75 -27 -33 -6 -35 -5 -38 29 -3 33 -26 51 -43 34z m203 -62 c0 -8 -5 -15 -11 -15 -6 0 -10 7 -10 15 0 9 4 16 10 16 6 0 11 -7 11 -16z m-218 -23 c-8 -3 -13 -10 -13 -15 0 -6 7 -9 15 -5 10 3 16 0 16 -10 0 -18 -5 -19 -32 -4 -26 13 -27 39 -2 44 22 5 35 -3 16 -10z m178 -24 c-2 -19 -11 -40 -20 -47 -10 -7 -14 -18 -10 -25 11 -17 6 -15 -47 12 -47 25 -71 71 -36 71 9 0 26 5 37 13 18 10 23 10 30 -1 7 -11 10 -11 16 3 11 30 33 11 30 -26z"/>
	</g>
</svg>
