<?xml version="1.0" encoding="utf-8"?>
<svg xmlns="http://www.w3.org/2000/svg" preserveAspectRatio="xMidYMid meet" version="1.0" viewBox="0 0 195 178">
	<title>Diagram of the outer solar system showing the paths of various comets and the planets.</title>
	<g fill="#000000" stroke="none" transform="translate(0.000000,178.080000) rotate(-360.00) scale(0.022857,-0.022857)">
		<path d="M0 3896 l0 -3896 4284 0 4284 0 0 3896 0 3895 -4284 0 -4284 0 0 -3895z m6814 3787 c-36 -30 -82 -69 -103 -86 -21 -17 -101 -86 -179 -152 -77 -67 -153 -131 -170 -142 -16 -12 -84 -68 -152 -126 l-123 -104 -67 -5 c-58 -3 -75 0 -119 23 -48 27 -84 36 -84 21 0 -17 37 -45 59 -45 52 0 22 -19 -51 -32 -94 -16 -130 -29 -117 -41 5 -6 52 -1 109 10 119 23 159 25 177 8 10 -11 -12 -37 -106 -126 -130 -123 -123 -122 -139 -27 -8 47 -26 53 -26 8 0 -33 -9 -39 -29 -20 -7 7 -14 7 -17 1 -4 -5 10 -25 30 -43 38 -34 48 -64 21 -64 -8 0 -17 -8 -21 -18 -8 -27 -395 -409 -400 -397 -14 36 -196 261 -256 317 -25 22 -34 37 -27 44 17 17 204 113 300 154 99 43 137 57 252 95 80 27 103 41 91 53 -7 7 -220 -59 -275 -85 -18 -9 -67 -30 -110 -49 -72 -30 -171 -80 -260 -131 l-33 -19 -42 48 c-48 54 -263 240 -330 285 -25 17 -54 38 -65 49 -39 35 -196 128 -331 195 -74 37 -137 74 -140 83 -4 11 -20 17 -49 17 -24 0 -56 6 -71 14 -112 57 -428 133 -666 159 -54 6 -323 6 -394 1 -83 -7 -298 -58 -382 -91 -29 -11 -59 -20 -68 -20 -20 0 -20 52 1 101 9 21 13 41 11 43 -10 10 -37 -21 -37 -41 0 -24 -9 -25 -34 -2 -25 23 -24 4 3 -48 22 -43 19 -70 -7 -60 -8 3 -15 0 -15 -8 0 -7 -59 -43 -132 -80 -168 -86 -412 -268 -390 -290 4 -4 29 11 55 34 159 134 315 228 521 313 216 89 593 146 797 120 37 -5 94 -11 126 -14 105 -11 256 -39 317 -59 33 -11 68 -20 78 -20 26 0 195 -63 215 -81 10 -8 24 -14 32 -12 41 8 259 -99 429 -211 71 -47 130 -84 133 -84 2 0 64 -51 138 -112 147 -123 264 -232 264 -246 0 -5 -15 -17 -34 -27 -36 -18 -204 -132 -276 -187 -142 -109 -392 -354 -504 -494 -82 -104 -226 -313 -272 -397 -36 -65 -42 -70 -67 -64 -16 3 -59 12 -96 21 -344 75 -630 111 -998 125 -84 3 -194 8 -244 11 -150 9 -681 -26 -890 -58 -85 -13 -127 -16 -141 -8 -15 7 -23 6 -32 -6 -12 -17 -129 -45 -140 -34 -14 14 0 249 25 405 39 242 102 421 226 639 36 65 82 136 101 158 19 22 35 45 35 50 -1 5 42 55 95 111 96 103 125 161 43 87 -219 -198 -426 -569 -505 -904 -31 -129 -56 -366 -53 -500 0 -27 -4 -52 -10 -56 -6 -3 -59 -15 -119 -26 -59 -11 -136 -28 -171 -37 -34 -10 -91 -24 -126 -33 -160 -38 -538 -166 -711 -239 l-39 -17 0 1265 0 1266 3413 0 3413 0 -65 -56z m1702 -2095 l0 -2150 -187 -24 c-102 -13 -199 -26 -215 -30 -38 -7 -37 3 8 94 20 41 37 87 37 102 0 15 5 33 11 39 15 15 44 235 33 247 -5 4 -17 -47 -28 -115 -25 -166 -105 -381 -141 -380 -5 0 -23 -3 -41 -7 -26 -5 -32 -2 -38 19 -8 24 -8 24 -17 2 -11 -29 -45 -35 -420 -77 -306 -35 -646 -59 -934 -68 -232 -7 -229 -9 -89 67 41 23 80 48 88 57 7 10 18 17 23 17 6 0 28 13 49 28 156 114 154 112 365 298 17 15 63 61 103 102 39 42 76 76 81 76 5 0 10 9 10 21 0 12 4 21 8 21 11 0 190 237 250 331 23 35 47 70 54 79 21 23 154 302 175 364 10 31 22 56 27 56 4 -1 41 -34 82 -74 53 -53 75 -83 80 -110 8 -41 27 -60 27 -26 0 20 2 20 24 -8 24 -29 35 -45 89 -124 80 -119 143 -292 156 -434 4 -41 11 -75 17 -75 5 0 7 13 3 29 -3 16 -8 57 -11 92 -13 176 -87 341 -238 529 -57 72 -72 97 -72 127 0 20 -7 49 -15 63 -9 14 -15 36 -16 48 0 12 -12 60 -27 107 l-26 84 33 172 c58 309 43 572 -50 848 -68 202 -145 342 -284 516 -65 82 -164 171 -326 295 -109 83 -343 185 -503 220 -28 6 -70 15 -93 21 -23 5 -128 13 -233 17 -109 3 -189 10 -186 15 4 6 34 32 67 59 34 28 132 110 217 184 86 74 187 160 225 191 37 32 110 93 162 136 l95 79 795 0 796 1 0 -2151z m-2090 1452 c241 -18 470 -93 688 -224 199 -120 395 -322 512 -528 211 -373 261 -719 169 -1187 -15 -77 -30 -144 -35 -150 -5 -6 -12 -30 -16 -53 -9 -52 -23 -78 -41 -78 -15 0 -53 39 -62 64 -3 9 -22 20 -42 24 -20 3 -43 14 -50 22 -7 9 -39 30 -72 47 -76 41 -117 73 -95 73 20 1 105 101 105 124 0 13 -6 11 -26 -7 -21 -20 -29 -22 -48 -12 -48 26 -103 -44 -67 -86 13 -13 -26 2 -107 42 -118 59 -247 112 -380 154 -57 19 -81 37 -48 38 27 0 49 16 41 30 -5 8 -13 8 -29 0 -45 -24 -50 21 -8 75 l21 26 20 -26 c18 -23 23 -24 32 -11 14 22 -11 57 -44 61 -58 7 -115 -103 -76 -146 24 -26 14 -25 -86 6 -166 52 -512 98 -744 100 -93 1 -172 4 -176 8 -4 4 -24 60 -45 123 -53 157 -117 299 -208 460 -41 73 -83 147 -92 164 -9 16 -31 49 -50 73 -26 33 -32 47 -24 61 9 18 475 475 627 616 35 33 72 60 82 60 9 0 17 5 17 13 1 55 81 65 357 44z m-1414 -401 c13 -16 54 -65 93 -108 43 -49 70 -89 71 -105 0 -15 2 -57 3 -94 2 -61 5 -69 25 -72 14 -2 29 6 39 20 15 21 15 27 -4 63 -30 58 -25 61 16 8 20 -25 37 -50 37 -55 0 -6 -22 -32 -50 -59 -71 -70 -252 -267 -315 -341 -29 -35 -80 -96 -114 -137 -117 -138 -252 -304 -313 -386 -34 -44 -64 -81 -67 -81 -3 0 -58 26 -122 57 -116 58 -215 94 -362 132 -43 12 -80 23 -83 26 -12 12 163 279 276 426 83 106 275 309 366 385 35 30 95 80 133 111 62 52 331 239 343 239 3 0 16 -13 28 -29z m214 -345 c-10 -10 -28 5 -28 25 0 16 1 16 17 -1 10 -10 15 -20 11 -24z m147 -112 c148 -238 258 -468 337 -704 20 -60 12 -70 -56 -70 -48 -1 -250 -26 -346 -44 -117 -22 -388 -104 -522 -158 l-133 -53 -51 29 c-27 16 -63 39 -78 51 -15 12 -36 27 -47 34 -18 10 -18 13 -2 36 9 14 31 40 47 57 17 18 59 67 93 111 34 43 97 121 141 174 44 52 117 142 163 199 46 57 98 119 116 138 17 18 83 90 147 159 63 69 120 126 126 127 6 0 35 -38 65 -86z m-2622 -548 c180 -10 286 -18 394 -32 17 -3 62 -8 100 -12 37 -3 76 -11 86 -16 10 -5 41 -11 68 -14 75 -6 386 -64 404 -75 11 -7 -41 -114 -57 -117 -8 -2 -43 5 -77 14 -34 10 -88 21 -120 26 -32 5 -88 14 -126 20 -274 44 -851 28 -1087 -31 -23 -6 -91 -22 -152 -36 -117 -28 -266 -73 -378 -115 -38 -14 -97 -36 -131 -48 -35 -13 -126 -56 -204 -96 -109 -57 -143 -70 -154 -61 -12 9 -17 7 -24 -12 -11 -32 -152 -120 -157 -98 -6 25 -23 16 -35 -17 -6 -17 -28 -41 -49 -54 -57 -35 -185 -141 -259 -214 -145 -144 -269 -316 -365 -504 -45 -89 -99 -244 -110 -314 -2 -18 -9 -49 -14 -70 -12 -46 -15 -291 -5 -351 34 -195 58 -275 125 -414 83 -172 167 -274 341 -414 67 -54 153 -117 190 -138 37 -22 83 -50 102 -63 18 -13 83 -43 142 -67 94 -38 112 -48 129 -80 23 -43 42 -48 32 -9 -5 22 -3 26 10 21 9 -3 86 -25 171 -48 252 -67 396 -86 711 -91 l273 -4 18 -67 c25 -91 66 -182 103 -229 36 -45 38 -50 15 -50 -32 0 -9 -25 35 -38 43 -12 44 -12 44 10 -1 25 -29 93 -30 72 -2 -27 -23 -11 -53 42 -32 55 -100 248 -91 257 3 3 24 7 48 11 37 5 43 3 43 -15 0 -11 11 -44 24 -72 14 -29 29 -64 33 -78 24 -77 151 -222 240 -273 71 -40 182 -74 246 -74 75 0 60 14 -30 30 -143 25 -298 125 -381 246 -40 58 -101 196 -101 228 0 15 13 19 76 24 114 10 239 33 381 70 46 12 96 24 110 25 14 2 33 6 42 10 9 4 77 28 152 53 214 72 273 97 441 181 167 84 274 145 307 175 11 10 25 18 31 18 5 0 24 15 40 32 17 17 36 32 42 32 6 0 37 23 69 52 31 29 69 55 84 58 14 4 64 18 111 32 82 26 85 26 123 8 21 -10 39 -24 38 -32 0 -23 -120 -257 -164 -320 -38 -55 -208 -207 -366 -329 -40 -31 -110 -85 -155 -121 -45 -35 -135 -99 -200 -142 -64 -43 -136 -91 -159 -108 -46 -33 -220 -139 -292 -177 -24 -13 -57 -24 -73 -24 -22 0 -32 -7 -40 -26 -5 -15 -20 -31 -33 -36 -14 -5 -79 -36 -145 -69 -66 -33 -170 -81 -231 -107 -61 -26 -132 -57 -157 -69 -26 -12 -78 -32 -116 -45 -38 -13 -135 -47 -217 -76 -137 -48 -151 -51 -171 -37 -13 9 -26 13 -30 9 -4 -4 0 -11 9 -17 21 -13 3 -27 -53 -39 -26 -6 -73 -19 -105 -28 -113 -33 -402 -101 -429 -101 -13 0 -31 -4 -41 -10 -33 -18 -538 -89 -743 -105 -275 -21 -345 -23 -622 -22 l-149 1 0 2168 c0 1446 3 2169 10 2169 6 0 34 11 62 24 29 14 64 28 78 32 15 4 40 12 56 19 95 39 441 153 544 179 35 9 101 27 147 39 46 12 108 26 137 32 29 6 70 15 92 20 48 11 45 16 55 -104 3 -49 7 -96 8 -105 0 -9 -2 -29 -6 -45 -6 -22 -4 -28 8 -28 10 0 16 -10 16 -26 0 -36 23 -132 32 -132 4 0 5 27 2 60 -4 34 -7 97 -7 142 0 45 -4 82 -8 82 -9 0 -29 95 -29 137 0 34 4 37 70 44 34 4 45 2 45 -9 0 -21 14 -19 28 4 13 21 114 43 228 51 35 2 95 9 133 15 182 29 672 42 997 26z m1208 -190 c43 -10 104 -27 136 -37 68 -22 294 -121 307 -135 12 -11 -65 -127 -84 -127 -8 0 -46 19 -86 41 -101 57 -290 131 -407 159 -25 6 -45 14 -45 18 0 4 14 33 32 63 26 45 35 54 50 46 10 -5 53 -17 97 -28z m-641 -37 c128 -14 402 -61 412 -71 4 -4 -4 -33 -19 -64 -14 -30 -25 -60 -25 -66 0 -6 -8 -26 -16 -44 -9 -18 -27 -71 -40 -117 l-24 -84 -47 1 c-255 6 -441 5 -453 -2 -7 -5 -42 -10 -77 -11 -135 -7 -530 -81 -682 -128 -70 -22 -349 -126 -378 -141 -18 -10 -77 -39 -133 -66 -56 -26 -132 -68 -170 -93 -85 -56 -131 -75 -144 -62 -31 31 -189 475 -189 531 1 31 386 203 641 286 136 44 220 64 441 104 245 45 630 56 903 27z m2846 -31 c186 -18 357 -48 507 -88 164 -44 406 -131 501 -180 25 -13 68 -34 94 -46 124 -58 298 -169 316 -202 5 -11 17 -19 26 -19 26 0 89 -54 89 -75 0 -28 -80 -198 -172 -366 -54 -101 -166 -264 -253 -373 -90 -112 -319 -348 -415 -427 -178 -147 -462 -337 -535 -359 -21 -6 -41 -16 -45 -22 -5 -7 -8 -7 -8 2 0 10 -38 13 -154 13 -117 0 -152 -3 -148 -13 3 -10 41 -13 137 -14 73 0 135 -3 138 -6 9 -9 -189 -93 -345 -147 -198 -69 -370 -108 -524 -119 -33 -2 -106 -7 -163 -11 -99 -8 -234 -7 -242 0 -2 3 14 34 37 71 22 36 47 79 56 94 9 16 46 52 83 79 37 28 75 56 85 64 15 11 46 10 169 -3 214 -23 540 -33 549 -18 11 19 -4 21 -188 27 -277 10 -439 18 -465 23 -22 5 -18 12 58 97 100 111 171 197 171 207 0 4 18 34 40 67 33 48 123 223 160 311 20 47 62 185 72 238 6 31 18 86 27 124 23 101 40 365 34 515 -6 139 -41 390 -66 477 -30 103 -36 99 129 93 80 -3 190 -9 245 -14z m-420 -16 c13 -35 49 -246 63 -367 14 -124 14 -462 0 -562 -18 -126 -44 -256 -53 -268 -5 -6 -12 -33 -16 -62 -8 -49 -36 -131 -79 -221 -10 -23 -31 -68 -46 -100 -62 -134 -172 -288 -313 -435 -54 -58 -73 -71 -83 -62 -8 9 -18 10 -32 3 -34 -19 -40 -1 -18 51 90 207 131 529 98 774 -40 295 -185 621 -360 806 l-38 41 42 -19 c23 -10 51 -27 63 -36 47 -39 89 -52 89 -27 0 16 -60 49 -88 49 -9 0 -17 4 -17 10 0 5 -24 18 -54 28 -36 13 -79 43 -133 92 -45 41 -80 76 -78 79 6 14 221 94 381 143 72 22 224 55 320 69 40 5 113 17 163 24 49 8 109 15 134 15 39 1 46 -2 55 -25z m-1906 -48 c23 -6 56 -17 73 -25 18 -7 58 -21 90 -31 74 -24 288 -126 298 -142 9 -15 -39 -81 -65 -88 -10 -3 -31 -8 -47 -11 -47 -11 -35 -30 13 -22 l42 7 -36 -73 -37 -73 -55 19 c-31 11 -66 19 -78 20 -33 0 -37 11 -11 32 35 28 13 37 -30 11 -32 -18 -44 -20 -82 -12 -24 5 -95 13 -157 17 -62 4 -115 11 -118 16 -3 4 1 26 9 48 8 22 20 59 27 82 7 23 30 86 50 139 40 105 40 106 114 86z m696 -119 c48 -31 84 -59 79 -61 -5 -3 -41 -23 -80 -44 l-72 -39 -57 34 c-31 19 -57 38 -57 42 0 5 11 21 24 38 13 16 32 42 42 58 10 16 22 29 26 29 5 0 47 -26 95 -57z m2868 -91 c-12 -22 -26 -26 -36 -10 -8 12 25 44 37 37 6 -4 6 -14 -1 -27z m-2691 -31 c31 -23 56 -46 56 -51 0 -5 -20 -2 -44 6 -29 10 -47 12 -54 4 -13 -13 33 -32 78 -32 17 0 31 -4 31 -9 0 -6 11 -13 25 -16 23 -6 100 -92 156 -174 9 -15 31 -46 47 -69 40 -56 132 -246 160 -330 77 -229 97 -526 52 -783 -12 -65 -52 -208 -81 -286 l-16 -45 -58 7 c-32 3 -77 12 -101 19 l-43 13 3 67 c4 82 44 187 94 248 20 24 31 46 25 50 -5 3 -17 -4 -27 -17 -20 -29 -20 -22 0 73 20 96 24 352 6 444 -18 94 -60 231 -97 312 -19 44 -25 64 -14 55 9 -7 19 -10 23 -6 4 4 -13 27 -39 52 -26 25 -72 80 -102 123 -69 99 -183 217 -247 257 -52 32 -65 57 -29 57 12 0 21 6 21 14 0 14 77 58 104 59 8 0 40 -19 71 -42z m-334 2 c24 -18 24 -20 5 -28 -16 -7 -15 -9 12 -15 32 -6 32 -6 -47 -65 -43 -33 -90 -72 -104 -87 -44 -47 -57 -33 -26 28 43 85 64 110 101 119 34 8 34 8 6 12 -26 4 -27 7 -17 30 14 30 36 32 70 6z m141 -105 c55 -41 204 -192 256 -260 26 -34 27 -64 1 -37 -15 15 -39 16 -39 2 0 -6 22 -21 49 -34 57 -28 85 -70 136 -203 68 -179 88 -278 87 -453 0 -252 -67 -517 -88 -348 -4 31 -15 90 -23 132 -9 42 -14 84 -10 94 4 10 7 71 7 137 0 128 -18 209 -72 333 -30 69 -90 168 -108 179 -6 4 -8 15 -5 25 4 13 -4 23 -26 33 -17 8 -62 41 -99 73 -66 56 -67 58 -41 63 16 3 30 11 32 18 4 10 -14 14 -63 14 -55 0 -80 5 -125 29 -31 17 -79 39 -106 49 -27 10 -49 22 -49 27 0 8 24 30 52 46 10 6 51 36 90 66 39 31 75 56 80 56 5 0 34 -19 64 -41z m-3205 -20 c0 -43 130 -409 168 -473 12 -20 19 -42 17 -49 -3 -7 -26 -23 -51 -36 -25 -13 -62 -36 -82 -52 -20 -16 -50 -37 -66 -47 -42 -27 -203 -180 -275 -263 -58 -66 -63 -70 -69 -47 -5 20 -7 17 -12 -18 -4 -25 -23 -69 -48 -105 -138 -205 -187 -430 -140 -654 35 -169 103 -301 215 -419 49 -51 106 -102 126 -113 21 -11 45 -35 54 -54 20 -42 37 -54 37 -25 0 28 0 28 82 -11 118 -55 130 -60 233 -92 137 -44 224 -62 379 -79 217 -23 454 -28 631 -14 l103 9 0 -56 c0 -31 4 -72 9 -92 5 -21 12 -55 15 -76 5 -38 4 -40 -31 -46 -49 -9 -59 3 -65 80 -3 47 -9 66 -24 73 -29 16 -34 -4 -20 -80 7 -37 10 -71 7 -74 -4 -4 -98 -6 -209 -5 -240 3 -532 33 -659 69 -49 14 -106 28 -126 33 -48 10 -155 44 -194 62 -18 8 -77 34 -131 59 -106 47 -232 119 -296 169 -21 16 -43 29 -48 29 -15 0 -215 187 -260 242 -65 81 -67 84 -133 205 -49 88 -67 139 -98 266 -48 192 -45 417 6 621 42 170 178 421 327 606 90 112 360 350 396 350 5 0 16 6 23 13 20 19 111 81 119 81 4 0 19 9 34 21 37 29 55 27 56 -8z m2272 -55 c-1 -20 -9 -75 -19 -121 -9 -46 -20 -133 -23 -194 -4 -61 -11 -123 -17 -139 -8 -22 -7 -32 6 -45 11 -11 17 -36 18 -71 0 -30 4 -76 9 -102 25 -130 27 -117 -31 -157 -29 -21 -60 -37 -68 -36 -8 1 -18 -6 -21 -16 -3 -9 -50 -58 -105 -109 -87 -81 -172 -179 -284 -328 -73 -97 -153 -227 -215 -352 -29 -57 -59 -104 -66 -104 -8 0 -37 15 -65 34 -28 18 -59 38 -68 44 -34 22 -229 169 -289 219 -147 121 -330 310 -463 480 -140 178 -188 249 -318 475 l-25 43 23 19 c13 10 30 19 37 19 7 0 19 7 26 15 11 13 152 98 184 110 6 2 58 27 116 54 58 28 124 58 147 66 23 9 74 28 114 43 75 29 191 63 364 107 118 30 360 64 514 73 61 4 112 8 115 11 2 2 95 3 205 2 l200 -3 -1 -37z m4227 -29 c12 -39 25 -78 28 -86 4 -9 7 -23 9 -32 1 -9 5 -31 9 -49 8 -33 7 -32 -58 28 l-66 61 24 75 c13 41 25 74 27 74 2 0 14 -32 27 -71z m-4035 49 c145 -19 149 -23 85 -62 -82 -50 -184 -158 -148 -157 5 0 45 35 91 78 45 44 89 79 96 79 7 0 19 7 27 17 16 19 66 16 155 -9 96 -27 96 -29 -14 -150 -69 -77 -83 -97 -132 -186 -22 -41 -77 -192 -88 -242 -5 -24 -19 -35 -66 -56 -33 -15 -85 -43 -116 -64 -41 -27 -59 -34 -65 -25 -9 14 -32 220 -34 295 -1 58 3 75 23 93 14 12 13 13 -3 8 -13 -4 -18 0 -18 17 0 18 3 20 13 10 7 -7 22 -12 34 -12 31 0 48 19 48 56 0 17 9 42 21 55 13 13 18 25 12 29 -6 4 -20 -5 -32 -20 -11 -14 -29 -26 -39 -26 -10 0 -27 -8 -38 -17 -24 -22 -24 -17 -3 96 30 166 34 186 49 195 18 12 44 12 142 -2z m482 -119 c17 -8 54 -26 83 -38 48 -21 50 -24 27 -30 -14 -4 -28 -13 -30 -21 -5 -12 29 -11 92 2 16 4 74 -28 110 -60 39 -35 40 -38 16 -35 -50 5 -37 -18 16 -28 45 -8 59 -17 98 -63 118 -137 184 -302 196 -492 4 -62 5 -112 1 -112 -15 0 -59 107 -59 146 0 44 -17 66 -28 36 -6 -16 -10 -15 -29 9 -39 49 -155 134 -233 171 -42 20 -82 37 -88 37 -6 0 -10 3 -10 8 0 12 -218 14 -279 3 -38 -7 -54 -6 -60 3 -12 19 3 115 22 136 14 15 14 20 2 28 -29 17 11 116 47 116 17 0 42 29 32 39 -4 4 -17 1 -28 -6 -12 -8 -25 -11 -28 -8 -8 8 37 145 53 160 17 17 40 17 77 -1z m-132 -73 c0 -2 -10 -31 -22 -65 -14 -42 -32 -71 -57 -91 -21 -17 -37 -37 -37 -46 0 -20 10 -18 39 8 l24 23 0 -23 c0 -13 -7 -40 -16 -61 -11 -26 -12 -43 -5 -56 6 -11 11 -36 11 -56 0 -38 0 -37 -66 -56 -27 -7 -23 21 8 58 14 17 26 37 26 44 0 22 -37 -18 -64 -70 -23 -43 -63 -70 -80 -53 -3 4 5 28 19 54 20 39 22 50 11 57 -11 7 -5 26 28 91 59 117 181 280 181 242z m-2592 -350 c21 -47 166 -287 207 -342 21 -28 57 -75 80 -105 23 -30 51 -68 61 -85 19 -30 83 -100 243 -268 46 -48 131 -126 189 -173 106 -86 122 -98 254 -187 40 -27 79 -57 87 -66 7 -9 23 -16 34 -16 30 0 72 -31 72 -53 0 -27 -34 -94 -44 -88 -4 3 -6 12 -3 20 6 14 -98 100 -121 100 -18 0 -12 -19 11 -35 17 -12 20 -22 15 -51 -9 -45 21 -78 62 -67 30 7 32 0 15 -43 -21 -55 -48 -166 -61 -250 -17 -110 -21 -122 -33 -92 -5 13 -16 23 -25 24 -18 0 -22 -27 -6 -37 6 -3 7 -14 4 -23 -7 -18 -58 -13 -84 8 -16 14 -19 52 -3 52 5 0 10 7 10 15 0 23 -28 20 -45 -6 -20 -28 -12 -58 24 -83 45 -32 91 -38 116 -15 20 18 20 17 21 -25 0 -23 -5 -45 -10 -49 -5 -3 -133 -6 -284 -6 -513 -1 -745 43 -1078 201 -91 43 -106 54 -102 72 7 25 -15 95 -30 95 -10 0 -8 -19 8 -71 4 -15 3 -23 -5 -23 -21 -1 -170 149 -198 198 -15 27 -35 58 -45 69 -55 62 -97 206 -110 374 -5 76 28 241 69 340 84 203 324 480 535 621 38 24 82 57 100 71 40 34 55 34 70 -1z m2802 -67 c0 -7 11 -10 28 -6 41 8 158 -29 218 -69 82 -54 160 -139 213 -231 29 -50 66 -161 60 -180 -2 -6 -11 -39 -20 -72 -15 -52 -23 -64 -61 -88 -56 -35 -53 -32 -45 -46 5 -8 15 -7 33 5 14 9 25 13 25 10 0 -16 -118 -184 -135 -193 -20 -10 -31 -6 -111 47 -26 17 -47 37 -48 44 0 7 -16 20 -36 28 -21 9 -70 55 -121 113 -85 98 -148 208 -199 345 -22 60 -60 270 -51 279 8 8 128 23 194 24 35 1 56 -3 56 -10z m-276 -54 c-2 -130 66 -340 151 -467 17 -24 30 -49 30 -56 0 -6 38 -47 84 -91 63 -59 82 -82 73 -92 -8 -10 -2 -15 25 -20 20 -4 43 -16 53 -26 9 -11 43 -32 74 -48 89 -45 91 -51 37 -109 -132 -141 -216 -222 -228 -222 -42 0 -346 350 -395 456 -15 32 -39 83 -54 114 -27 58 -34 97 -15 86 13 -9 13 7 -2 44 -38 97 -55 316 -29 389 12 34 47 51 68 33 10 -8 16 -5 24 8 9 17 83 46 98 39 3 -2 6 -19 6 -38z m-233 -76 c-13 -67 -7 -242 10 -326 18 -88 51 -181 89 -258 42 -82 158 -241 233 -316 40 -41 70 -76 68 -79 -20 -19 -282 237 -369 359 -71 102 -174 307 -216 431 l-34 104 28 21 c33 25 175 101 188 101 6 0 7 -17 3 -37z m-202 -231 c2 -12 11 -38 20 -58 10 -20 29 -63 44 -94 113 -247 316 -487 529 -627 50 -33 93 -61 96 -63 13 -10 -59 -66 -84 -66 -19 0 -30 -7 -34 -20 -2 -11 -33 -35 -66 -54 -34 -20 -77 -46 -95 -60 -18 -13 -37 -24 -44 -24 -6 0 -24 -11 -41 -25 -55 -46 -97 -54 -210 -40 -188 24 -415 75 -573 129 -91 31 -340 140 -357 156 -5 5 22 69 60 144 120 232 366 551 524 678 38 30 40 31 54 12 14 -18 15 -17 16 17 1 32 9 43 61 82 l59 45 19 -56 c10 -30 20 -65 22 -76z m1261 -260 c16 -104 16 -121 1 -140 -20 -26 -20 -37 0 -29 25 9 19 -42 -11 -101 -14 -28 -31 -55 -37 -58 -12 -8 -143 33 -152 47 -2 4 2 11 11 14 8 4 16 15 16 26 0 12 16 44 35 73 20 28 53 86 74 127 21 41 42 75 48 75 5 0 12 -15 15 -34z m3629 -1950 l0 -1680 -4232 0 -4231 0 0 381 0 381 259 -1 c283 0 361 2 465 16 38 5 106 12 152 15 131 8 543 62 561 73 4 3 64 17 133 31 172 35 295 66 419 103 179 54 185 55 206 42 28 -17 33 -16 25 8 -5 17 2 23 50 37 106 31 329 112 439 160 228 98 352 153 383 171 127 73 237 124 283 130 29 4 86 16 126 28 41 12 97 29 126 37 60 18 98 35 121 53 9 7 53 32 98 56 127 66 295 212 438 381 36 42 73 83 84 92 10 9 47 59 81 112 35 53 110 145 168 205 58 59 126 133 150 164 46 58 57 61 110 29 29 -18 203 -83 307 -115 105 -33 216 -57 486 -106 175 -32 501 -37 740 -11 166 18 158 17 315 52 209 47 241 55 262 66 12 5 52 19 89 29 120 33 383 160 490 238 94 69 170 131 222 184 25 25 52 46 61 46 8 0 15 4 15 9 0 11 120 172 141 189 7 7 70 19 138 28 69 9 161 22 204 30 43 8 87 14 97 15 18 1 19 -85 19 -1678z m-3774 1620 c43 -15 78 -32 78 -37 0 -5 -19 -34 -41 -64 -22 -30 -46 -65 -55 -77 -39 -59 -121 -161 -132 -166 -14 -6 -168 60 -189 80 -12 12 -1 26 66 87 44 40 103 102 132 139 29 36 55 66 58 66 3 0 40 -12 83 -28z m142 -17 c-9 -9 -12 -7 -12 4 0 21 14 35 19 20 3 -7 -1 -18 -7 -24z m3138 0 c-1 -22 -74 -94 -90 -87 -9 3 -15 -1 -15 -11 0 -66 -234 -267 -454 -390 -57 -31 -128 -66 -158 -77 -30 -12 -64 -25 -76 -30 -11 -6 -66 -25 -120 -42 -55 -18 -124 -40 -153 -50 -29 -9 -71 -21 -94 -25 -23 -5 -89 -18 -147 -30 -202 -43 -301 -51 -609 -48 -267 2 -309 5 -452 31 -203 36 -334 69 -504 127 -183 62 -263 97 -259 111 1 7 15 28 29 47 l27 35 147 -6 c86 -4 179 -1 223 5 93 14 236 35 264 38 61 8 363 98 441 132 23 10 65 29 94 41 29 13 84 39 123 60 l70 36 208 5 c115 2 246 7 292 10 85 5 407 25 436 26 9 0 49 5 89 10 105 14 329 40 452 53 58 7 111 14 118 16 8 3 13 -5 13 -21 0 -36 17 -33 25 5 4 23 12 32 35 35 16 2 33 5 37 6 4 1 8 -4 8 -12z m-3145 -73 c-9 -60 -58 -207 -69 -207 -5 0 -6 -14 -3 -30 8 -39 -18 -65 -62 -64 -49 2 -87 15 -84 29 2 7 -4 12 -13 12 -8 0 -15 3 -15 6 0 3 30 41 68 85 37 44 85 110 105 147 27 47 44 67 59 67 18 0 20 -5 14 -45z m140 11 c87 -12 87 -12 81 -39 -4 -15 -16 -35 -28 -44 -12 -9 -20 -25 -18 -36 3 -13 -9 -28 -33 -44 -20 -14 -44 -31 -52 -38 -23 -18 -117 -70 -128 -70 -18 0 13 43 39 53 31 11 35 35 5 26 -27 -9 -27 3 0 83 11 34 21 75 21 92 0 34 -3 34 113 17z m121 -35 c-7 -18 0 -19 31 -4 17 8 15 3 -8 -18 -27 -24 -32 -26 -35 -10 -4 19 4 48 13 48 3 0 3 -7 -1 -16z m-2135 -268 c95 -39 225 -86 306 -109 93 -26 311 -67 401 -75 49 -5 80 -12 78 -19 -8 -23 -356 -155 -580 -220 -165 -47 -541 -120 -561 -107 -35 21 47 407 124 587 l21 49 66 -37 c37 -20 102 -51 145 -69z m1424 66 c47 -30 57 -44 30 -44 -9 0 -14 -5 -10 -11 3 -6 25 -10 48 -10 56 0 53 -20 -11 -76 -53 -46 -102 -69 -145 -71 -32 -1 -30 -19 3 -23 25 -4 23 -7 -32 -46 -32 -23 -89 -64 -125 -92 -37 -27 -70 -49 -74 -49 -4 0 -55 -28 -114 -62 -308 -177 -708 -316 -1083 -378 -217 -36 -236 -37 -243 -19 -8 23 -33 242 -28 251 2 4 19 8 38 8 18 0 71 7 117 15 252 45 318 58 345 68 17 7 73 24 126 38 164 45 293 94 480 182 92 44 106 47 188 48 60 1 89 5 92 14 3 8 -4 13 -17 13 -11 0 -24 5 -28 11 -5 9 -10 9 -18 0 -14 -14 -39 -15 -39 -1 0 5 34 27 76 48 42 21 83 45 92 52 41 34 151 90 179 90 31 0 41 13 20 26 -15 10 54 58 73 51 8 -2 35 -18 60 -33z m559 -26 c-48 -82 -59 -92 -97 -86 -66 11 -80 16 -80 24 0 5 41 30 90 55 50 25 92 49 95 54 3 4 10 8 15 8 5 0 -5 -25 -23 -55z m-2300 -6 c3 -19 -1 -24 -16 -21 -10 2 -20 14 -22 28 -3 19 1 24 16 21 10 -2 20 -15 22 -28z m1967 -46 c43 -13 51 -26 24 -37 -20 -7 -88 23 -88 39 0 14 14 13 64 -2z m-53 -30 c38 -20 23 -30 -85 -58 -25 -7 -24 -5 10 31 39 41 45 43 75 27z m161 -23 c-10 -32 -10 -32 -41 -25 -33 8 -34 21 -3 36 39 19 52 15 44 -11z m136 -8 c5 -5 -2 -23 -16 -42 -20 -26 -29 -31 -51 -26 -42 10 -55 28 -43 61 10 26 14 28 56 22 25 -4 49 -11 54 -15z m-67 -105 c0 -11 -40 -59 -124 -146 l-56 -59 42 84 c22 46 49 102 58 124 l16 40 32 -17 c18 -9 32 -20 32 -26z m-388 -461 c0 -19 -114 -146 -257 -288 -100 -98 -183 -169 -256 -218 -59 -40 -113 -72 -118 -72 -6 0 -18 -5 -29 -11 -63 -37 -306 -117 -306 -101 0 6 141 101 150 101 4 0 21 9 36 20 16 11 74 48 129 83 54 36 132 89 172 120 40 30 96 72 126 92 30 20 63 45 75 56 11 10 65 56 120 101 55 45 109 92 120 104 21 24 38 29 38 13z"/>
		<path d="M6528 7635 c-51 -18 -61 -29 -34 -40 11 -4 -6 -22 -55 -61 -159 -124 -205 -162 -299 -241 -95 -81 -116 -112 -79 -119 11 -3 56 32 121 94 56 54 138 129 181 166 43 38 81 71 84 73 66 64 73 68 89 47 14 -20 15 -20 22 1 4 11 14 37 22 56 20 51 25 49 -52 24z"/>
		<path d="M2510 7602 c-50 -49 -2 -118 56 -81 20 13 24 24 22 52 -2 19 -4 38 -4 42 -2 16 -54 7 -74 -13z m52 -52 c0 -6 -7 -11 -16 -11 -8 0 -15 5 -15 11 0 5 7 10 15 10 9 0 16 -5 16 -10z"/>
		<path d="M2177 7540 c-18 -11 -35 -25 -39 -30 -10 -16 26 -151 39 -146 7 2 11 19 10 36 -2 24 4 37 20 49 17 12 20 19 12 28 -8 8 -14 8 -19 0 -11 -18 -26 -13 -26 8 0 10 11 25 26 31 14 7 26 19 26 28 0 21 -9 20 -49 -4z"/>
		<path d="M2287 7516 c-10 -8 -21 -31 -25 -53 -9 -51 9 -59 68 -29 42 23 56 42 30 42 -8 0 -18 10 -24 23 -13 29 -27 34 -49 17z m34 -60 c0 -5 -8 -12 -16 -15 -10 -4 -16 0 -16 9 0 9 7 16 16 16 8 0 16 -5 16 -10z"/>
		<path d="M4402 7406 c-31 -12 -9 -24 45 -24 44 0 58 3 58 15 0 12 -12 16 -45 15 -25 0 -51 -3 -58 -6z"/>
		<path d="M4541 7404 c-12 -12 -3 -21 26 -28 38 -8 77 3 71 20 -4 11 -86 19 -97 8z"/>
		<path d="M4242 7387 c0 -17 56 -22 102 -9 45 11 24 25 -39 25 -49 0 -63 -4 -63 -16z"/>
		<path d="M4657 7393 c-8 -14 3 -19 59 -27 31 -5 51 -3 56 4 8 13 -3 18 -65 26 -24 4 -46 2 -50 -3z"/>
		<path d="M5391 7391 c-64 -18 -120 -99 -120 -172 0 -86 73 -152 168 -152 30 0 64 5 76 11 27 15 68 61 77 86 4 13 13 17 26 12 24 -7 28 14 5 23 -10 4 -16 20 -16 43 0 95 -120 178 -216 149z m84 -79 c94 -31 111 -41 111 -65 0 -13 -3 -14 -13 -4 -7 7 -20 13 -28 13 -32 0 -204 59 -209 71 -6 21 47 15 139 -15z m-36 -109 c49 -17 98 -31 108 -31 22 -1 24 -30 2 -39 -9 -3 -22 -1 -29 4 -7 6 -43 16 -81 23 -79 15 -136 40 -136 60 0 22 38 17 136 -17z m-16 -105 c9 -13 -16 -13 -36 0 -13 8 -12 10 7 10 12 0 26 -4 29 -10z"/>
		<path d="M4108 7379 c3 -8 23 -13 50 -13 27 0 47 5 50 13 3 9 -11 13 -50 13 -39 0 -53 -4 -50 -13z"/>
		<path d="M4803 7381 c-9 -16 -6 -18 51 -26 41 -6 50 -5 50 9 0 24 -87 39 -101 17z"/>
		<path d="M4925 7371 c-14 -9 -14 -12 0 -21 8 -6 28 -10 44 -10 16 0 32 -1 37 -1 4 -1 9 4 11 9 3 10 -8 15 -61 29 -9 2 -23 -1 -31 -6z"/>
		<path d="M3804 7339 c-68 -10 -87 -16 -87 -32 0 -13 29 -10 147 11 134 24 83 42 -60 21z"/>
		<path d="M5035 7341 c-3 -6 2 -13 11 -16 26 -10 99 -8 99 3 0 19 -98 31 -110 13z"/>
		<path d="M5181 7318 c-10 -17 15 -31 56 -31 31 0 45 13 26 24 -23 14 -75 18 -82 7z"/>
		<path d="M3618 7299 c-33 -7 -50 -33 -21 -33 29 0 99 24 99 33 0 10 -32 10 -78 0z"/>
		<path d="M1897 7278 c-29 -31 -21 -75 16 -88 21 -8 72 28 72 51 0 21 -19 18 -32 -6 -6 -12 -19 -21 -29 -21 -13 0 -10 7 14 31 25 27 28 34 15 42 -23 15 -37 13 -56 -9z"/>
		<path d="M1789 7272 c-3 -8 0 -26 7 -39 11 -20 10 -26 -10 -41 -46 -38 -16 -107 38 -88 50 18 52 38 14 114 -19 38 -37 69 -39 69 -2 0 -7 -7 -10 -15z m45 -106 c3 -8 3 -23 0 -31 -8 -21 -38 -9 -38 15 0 33 27 44 38 16z"/>
		<path d="M3483 7264 c-35 -12 -60 -27 -60 -36 0 -18 -5 -18 64 2 64 19 82 31 67 45 -6 6 -36 1 -71 -11z"/>
		<path d="M3330 7213 c-25 -11 -42 -25 -38 -31 3 -6 10 -9 14 -6 4 2 27 9 51 16 27 7 45 18 45 27 0 21 -17 19 -72 -6z"/>
		<path d="M3213 7172 c-55 -22 -72 -49 -25 -40 54 11 88 28 88 44 0 20 -4 20 -63 -4z"/>
		<path d="M5670 7169 c0 -16 50 -43 102 -55 65 -14 33 26 -38 47 -15 5 -36 12 -46 16 -12 5 -18 2 -18 -8z"/>
		<path d="M3090 7119 c-39 -17 -61 -42 -37 -42 24 0 97 37 97 49 0 18 -7 18 -60 -7z"/>
		<path d="M2964 7064 c-48 -24 -64 -57 -21 -44 36 11 84 40 89 54 6 19 -17 16 -68 -10z"/>
		<path d="M2849 7004 c-42 -19 -63 -39 -53 -49 8 -8 80 19 93 35 22 26 3 33 -40 14z"/>
		<path d="M2709 6929 c-48 -29 -48 -29 -35 -42 14 -13 88 28 88 49 0 20 -10 19 -53 -7z"/>
		<path d="M1603 6923 c-8 -8 1 -24 15 -24 5 0 10 7 10 15 0 16 -13 21 -25 9z"/>
		<path d="M1420 6907 c-19 -19 -16 -66 8 -107 33 -54 93 -65 122 -22 14 22 15 32 6 53 -17 37 -38 33 -30 -6 9 -46 -17 -53 -57 -15 -40 38 -41 78 -3 78 17 0 25 5 22 13 -5 18 -52 22 -68 6z"/>
		<path d="M2583 6850 c-46 -33 -45 -32 -37 -45 7 -12 100 47 100 64 0 15 -25 7 -63 -19z"/>
		<path d="M5631 6803 c-18 -7 -24 -17 -24 -44 0 -48 31 -77 63 -60 20 11 22 19 17 50 -8 49 -26 66 -56 54z m30 -75 c-18 -18 -28 0 -11 19 10 12 15 13 18 5 2 -7 -1 -18 -7 -24z"/>
		<path d="M2463 6772 c-23 -17 -44 -35 -47 -39 -4 -4 -19 -14 -34 -22 -41 -21 -102 -85 -81 -85 16 0 86 49 109 76 6 7 29 22 52 34 49 24 79 47 79 59 0 19 -38 7 -78 -23z"/>
		<path d="M5523 6769 c0 -18 50 -109 65 -118 22 -14 19 7 -12 68 -31 61 -53 82 -53 50z"/>
		<path d="M2213 6744 c-15 -17 -15 -23 0 -59 8 -21 21 -37 27 -35 13 5 13 10 2 47 -6 19 -3 26 15 30 12 3 22 12 22 20 0 21 -47 19 -66 -3z"/>
		<path d="M5479 6735 c-10 -9 58 -139 73 -140 19 -1 17 7 -19 81 -30 61 -41 73 -54 59z"/>
		<path d="M2121 6668 c-18 -33 -12 -62 16 -80 25 -17 28 -17 47 1 22 19 28 47 12 47 -6 0 -12 -7 -16 -16 -6 -17 -27 -21 -27 -5 0 5 9 19 22 30 12 12 19 26 15 32 -12 19 -57 13 -69 -9z"/>
		<path d="M2027 6607 c0 -56 81 -114 98 -70 10 26 8 36 -9 36 -9 0 -16 -5 -16 -12 0 -8 -5 -8 -16 2 -8 7 -15 20 -15 30 0 19 -20 43 -34 43 -5 0 -8 -13 -8 -29z"/>
		<path d="M5440 6616 c-16 -29 -2 -95 20 -95 17 0 63 40 63 55 0 14 -46 60 -59 60 -8 0 -18 -9 -24 -20z"/>
		<path d="M1316 6613 c-10 -14 -82 -184 -113 -266 -18 -49 -58 -239 -59 -278 0 -14 -4 -33 -10 -42 -8 -13 -12 -13 -24 4 -22 30 -33 2 -13 -33 9 -16 20 -42 26 -58 12 -32 32 -38 32 -10 0 11 15 39 33 64 34 46 34 70 0 40 -10 -10 -21 -17 -24 -17 -5 0 9 69 36 178 25 96 67 212 113 304 23 47 41 94 39 103 -4 22 -23 28 -36 11z"/>
		<path d="M1964 6599 c0 -9 4 -14 10 -10 6 3 11 11 11 16 0 6 -5 10 -11 10 -6 0 -10 -7 -10 -16z"/>
		<path d="M2212 6575 c-39 -40 -47 -54 -29 -54 16 0 95 75 89 85 -9 16 -20 10 -60 -31z"/>
		<path d="M5345 6586 c0 -10 4 -25 10 -34 6 -10 5 -20 -3 -29 -9 -12 -15 -10 -30 10 -30 39 -35 12 -9 -44 25 -53 48 -81 58 -71 3 3 0 18 -7 33 -10 21 -9 30 2 44 13 15 16 14 33 -8 26 -34 23 -11 -7 58 -26 58 -48 77 -47 41z"/>
		<path d="M1995 6544 c1 -24 38 -73 48 -63 10 10 -23 82 -37 82 -6 0 -11 -9 -11 -19z"/>
		<path d="M2095 6475 c-22 -19 -38 -41 -35 -49 3 -10 17 -2 48 26 69 62 57 84 -13 23z"/>
		<path d="M1924 6487 c-18 -17 -16 -35 5 -75 10 -18 24 -46 29 -62 l11 -30 41 43 c37 37 39 42 19 42 -12 0 -27 -8 -32 -17 -6 -11 -12 -13 -16 -6 -4 6 -3 14 3 18 17 10 13 65 -5 83 -20 20 -38 21 -55 4z m48 -51 c4 -22 2 -23 -13 -11 -20 17 -22 47 -3 40 7 -2 14 -15 16 -29z"/>
		<path d="M5240 6479 c0 -12 4 -21 10 -21 6 0 11 9 11 21 0 11 -5 21 -11 21 -6 0 -10 -10 -10 -21z"/>
		<path d="M1863 6412 c-4 -10 -2 -24 5 -31 14 -14 16 -49 2 -49 -5 0 -16 10 -25 23 -20 31 -36 16 -20 -19 17 -37 42 -43 67 -17 24 23 21 54 -6 91 -15 20 -16 20 -23 2z"/>
		<path d="M1717 6373 c-4 -6 10 -38 32 -69 27 -40 36 -61 28 -68 -7 -8 -13 -8 -18 0 -12 20 -28 12 -25 -12 5 -32 41 -36 66 -8 20 21 19 23 -16 91 -37 71 -54 88 -67 66z"/>
		<path d="M1890 6273 c-35 -34 -38 -55 -7 -43 20 7 62 67 52 73 -5 3 -25 -11 -45 -30z"/>
		<path d="M1781 6151 c-39 -45 -46 -61 -28 -61 15 0 84 76 84 92 1 24 -18 13 -56 -31z"/>
		<path d="M1697 6052 c-15 -17 -27 -39 -27 -51 0 -18 6 -15 39 18 28 28 35 42 27 51 -8 8 -19 3 -39 -18z"/>
		<path d="M2342 6031 c0 -9 5 -14 12 -12 19 6 23 29 4 29 -9 0 -16 -7 -16 -17z"/>
		<path d="M1596 5919 c-32 -52 -25 -71 11 -29 31 37 40 64 20 64 -6 0 -20 -16 -31 -35z"/>
		<path d="M2510 5870 c0 -7 7 -14 15 -18 20 -7 20 -33 0 -80 -9 -22 -11 -40 -6 -44 13 -7 16 -2 43 72 20 51 26 59 44 53 15 -5 20 -3 17 8 -6 17 -113 26 -113 9z"/>
		<path d="M2074 5856 c-3 -10 -8 -25 -10 -34 -3 -8 -15 -15 -26 -15 -24 0 -66 -50 -62 -72 5 -24 34 -37 63 -30 23 6 30 17 44 77 12 47 15 73 7 80 -7 8 -12 5 -16 -6z m-16 -90 c0 -5 -9 -17 -20 -27 -23 -21 -42 -4 -22 21 14 16 42 21 42 6z"/>
		<path d="M1529 5818 c-28 -44 -34 -64 -18 -64 16 0 66 86 56 96 -6 6 -20 -6 -38 -32z"/>
		<path d="M2926 5804 c-24 -66 -32 -102 -20 -102 11 0 55 106 55 132 0 29 -19 13 -35 -30z"/>
		<path d="M1675 5830 c-11 -12 -6 -46 7 -38 6 4 18 -2 26 -12 17 -23 39 -8 33 22 -3 18 -54 40 -66 28z"/>
		<path d="M2739 5821 c-15 -19 -21 -59 -12 -91 5 -19 56 -26 56 -7 0 5 -8 10 -16 10 -20 0 -21 35 -1 52 14 12 11 53 -4 53 -5 0 -15 -8 -23 -17z"/>
		<path d="M2830 5813 c-28 -31 -30 -104 -2 -110 20 -3 49 15 49 32 0 5 -9 7 -21 3 -25 -8 -25 -7 -5 42 20 48 8 66 -21 33z"/>
		<path d="M2123 5793 c-21 -25 -25 -66 -8 -80 26 -22 76 3 84 43 3 17 3 36 0 41 -9 14 -63 11 -76 -4z m46 -55 c-26 -20 -37 -20 -37 0 0 11 10 16 28 16 28 -1 28 -1 9 -16z"/>
		<path d="M2609 5774 c-16 -30 -16 -35 -2 -49 24 -24 66 -9 79 29 15 42 -3 51 -24 11 -23 -44 -40 -41 -31 5 8 45 0 47 -22 4z"/>
		<path d="M3002 5785 c-10 -5 -23 -24 -30 -41 -11 -26 -11 -35 0 -48 17 -21 66 -16 71 7 2 13 -4 16 -26 13 -27 -3 -26 -3 4 7 36 11 45 37 22 60 -15 15 -19 15 -41 2z"/>
		<path d="M1715 5722 c-9 -22 -17 -29 -29 -25 -18 7 -21 -3 -7 -26 8 -13 14 -12 37 3 27 17 34 42 19 67 -6 8 -12 2 -20 -19z"/>
		<path d="M1459 5709 c-22 -36 -26 -60 -11 -60 10 0 54 68 54 85 0 21 -23 8 -43 -25z"/>
		<path d="M1775 5696 c0 -8 4 -15 10 -15 6 0 11 7 11 15 0 9 -5 16 -11 16 -6 0 -10 -7 -10 -16z"/>
		<path d="M3087 5690 c0 -6 5 -8 11 -4 5 3 10 8 10 11 0 2 -5 5 -10 5 -6 0 -11 -6 -11 -12z"/>
		<path d="M866 5618 c-29 -11 -63 -20 -76 -21 -12 0 -38 -7 -57 -16 -19 -8 -63 -23 -98 -32 -51 -14 -211 -70 -303 -106 -16 -6 -18 -3 -13 15 4 11 3 24 -3 28 -5 3 -13 -3 -17 -15 -3 -11 -23 -31 -43 -43 -52 -32 -40 -47 36 -47 62 0 78 7 55 21 -18 11 -12 27 8 27 11 0 62 13 113 30 120 40 398 118 443 124 40 6 51 19 34 40 -16 19 -13 19 -79 -5z"/>
		<path d="M6710 7210 c-15 -7 -36 -30 -47 -51 -20 -36 -20 -39 -3 -65 21 -31 64 -37 96 -13 31 22 11 41 -25 22 -26 -13 -32 -13 -42 0 -9 11 -9 22 4 45 22 43 45 50 69 21 19 -23 20 -23 27 -4 6 15 1 26 -16 40 -28 22 -29 23 -63 5z"/>
		<path d="M6811 7060 c-8 -9 1 -25 15 -25 5 0 10 7 10 16 0 16 -13 21 -25 9z"/>
		<path d="M7298 6920 c-23 -17 -28 -18 -48 -4 -18 11 -30 12 -52 4 -37 -15 -34 -61 6 -84 27 -14 30 -13 65 16 59 50 85 110 29 68z m-58 -33 c11 -16 -12 -34 -32 -27 -15 6 -15 10 -5 23 15 18 28 20 37 4z"/>
		<path d="M7298 6831 c-12 -13 -21 -29 -21 -36 0 -17 39 -54 57 -54 24 0 19 28 -5 35 -12 3 -21 10 -21 17 0 16 16 14 32 -5 18 -22 52 -20 52 3 0 51 -60 76 -94 40z"/>
		<path d="M7609 6491 c-10 -11 -17 -27 -17 -35 0 -19 32 -51 51 -51 25 0 117 53 117 68 0 18 -19 20 -42 6 -10 -6 -23 -3 -41 11 -32 25 -46 25 -68 1z m51 -24 c10 -15 -18 -33 -30 -20 -10 10 -1 32 14 32 5 0 13 -6 16 -12z"/>
		<path d="M7766 6375 c-18 -7 -18 -9 -1 -22 13 -11 22 -12 35 -4 33 21 7 42 -34 26z"/>
		<path d="M7707 6264 c0 -9 9 -16 20 -16 30 0 49 -28 32 -48 -23 -28 -2 -30 59 -5 58 24 79 46 61 63 -5 4 -46 11 -91 15 -70 7 -81 6 -81 -9z"/>
		<path d="M7788 6135 c-16 -15 -6 -24 24 -24 24 0 32 -5 32 -20 0 -28 15 -36 31 -16 23 27 -6 68 -47 68 -19 0 -37 -4 -40 -8z"/>
		<path d="M7809 6041 c-17 -16 -5 -24 35 -24 35 0 42 -4 42 -21 0 -25 18 -29 27 -7 9 25 -29 59 -65 59 -18 0 -36 -3 -39 -7z"/>
		<path d="M7849 5921 c-4 -12 0 -32 10 -47 21 -32 42 -24 26 9 -11 22 -10 22 5 3 9 -11 18 -25 20 -31 6 -20 39 15 39 42 0 45 -87 66 -100 24z"/>
		<path d="M7875 5812 c-7 -9 -10 -27 -6 -42 9 -36 65 -39 72 -3 l5 24 1 -24 c1 -13 6 -23 12 -23 18 0 24 28 11 51 -13 25 -53 30 -53 7 0 -8 -5 -18 -11 -22 -7 -4 -8 3 -4 20 8 30 -7 36 -27 12z"/>
		<path d="M7930 5711 c-26 -8 -34 -16 -34 -35 0 -37 11 -58 28 -58 10 0 14 5 10 15 -4 9 -9 23 -13 32 -7 19 27 22 45 4 8 -8 14 -8 19 0 4 6 17 12 29 12 20 0 21 1 8 14 -23 22 -53 27 -92 16z"/>
		<path d="M7941 4732 c-25 -24 -45 -48 -45 -53 0 -5 24 -7 53 -5 55 4 65 -4 31 -25 -22 -14 -29 -50 -9 -50 35 0 156 37 153 46 -5 12 -24 12 -76 0 l-31 -7 30 33 c17 18 28 36 24 40 -3 3 -30 2 -59 -4 -29 -6 -53 -7 -53 -3 0 4 12 18 26 32 15 13 27 28 27 33 0 20 -30 5 -71 -37z"/>
		<path d="M8123 4604 c-3 -9 0 -15 10 -15 17 0 20 16 6 25 -6 3 -13 -1 -16 -10z"/>
		<path d="M8025 4576 c-20 -10 -35 -40 -20 -40 19 0 79 34 75 42 -8 13 -25 12 -55 -2z"/>
		<path d="M8061 4513 c-43 -16 -35 -32 12 -24 49 8 68 -10 28 -28 -40 -19 -35 -41 7 -29 53 15 63 39 30 73 -24 23 -34 24 -77 8z"/>
		<path d="M7910 4455 c7 -50 13 -63 24 -53 9 10 -8 103 -20 103 -6 0 -8 -19 -4 -50z"/>
		<path d="M7707 4464 c0 -5 -17 -21 -37 -34 -39 -27 -46 -41 -21 -41 19 0 25 12 -73 -142 -34 -52 -67 -101 -75 -110 -9 -9 -45 -56 -81 -105 -37 -49 -87 -109 -112 -134 -42 -42 -51 -76 -20 -76 15 0 75 64 118 126 17 26 38 52 44 58 7 6 35 43 64 84 84 119 96 138 149 241 19 36 29 47 31 34 2 -10 8 -18 14 -18 10 0 11 4 14 50 1 16 5 39 10 52 6 18 4 24 -9 24 -9 0 -16 -4 -16 -9z"/>
		<path d="M8127 4402 l-37 -18 45 -3 c47 -4 58 -18 24 -29 -32 -10 -27 -35 4 -29 35 7 51 28 43 55 -11 35 -38 43 -79 24z"/>
		<path d="M7932 4305 c15 -245 20 -284 35 -297 14 -11 15 1 9 108 -4 66 -12 125 -16 129 -5 5 -7 29 -4 53 3 30 -1 50 -12 65 -16 19 -17 15 -12 -58z"/>
		<path d="M8171 4303 c-7 -7 -12 -21 -12 -30 0 -23 37 -70 47 -60 5 4 2 15 -5 23 -7 9 -11 22 -8 29 3 8 11 -2 18 -21 15 -40 32 -39 47 2 9 25 6 32 -16 49 -30 23 -53 26 -71 8z"/>
		<path d="M8200 4178 c-14 -26 -6 -51 15 -51 10 0 13 7 9 21 -4 19 -1 22 20 19 16 -3 26 -12 28 -28 4 -29 23 -20 23 12 0 32 -19 49 -54 49 -19 0 -33 -8 -41 -22z"/>
		<path d="M8286 4087 c-45 -3 -65 -7 -62 -16 3 -7 15 -14 27 -16 27 -4 29 -15 7 -33 -17 -15 -21 -42 -6 -42 6 0 13 4 17 10 3 6 15 11 27 11 24 0 26 13 4 31 -24 20 -7 34 33 27 27 -5 36 -3 36 9 0 21 -6 22 -83 19z"/>
		<path d="M7961 3923 c2 -33 8 -59 14 -59 16 0 13 108 -3 113 -11 4 -13 -10 -11 -54z"/>
		<path d="M8249 3945 c-14 -10 -17 -21 -11 -42 8 -32 26 -49 26 -24 0 8 -6 18 -12 22 -8 5 -8 11 -1 18 16 15 34 0 34 -29 0 -29 12 -39 35 -30 24 9 21 52 -4 78 -24 24 -41 26 -67 7z"/>
		<path d="M7966 3836 c-4 -4 -7 -30 -7 -58 0 -38 4 -50 16 -50 12 0 16 12 16 51 0 49 -10 72 -25 57z"/>
		<path d="M7955 3649 c-6 -50 0 -83 16 -73 12 7 12 120 0 120 -5 0 -12 -21 -16 -47z"/>
		<path d="M7944 3507 c-7 -55 -2 -78 16 -68 12 8 13 121 0 121 -5 0 -12 -24 -16 -53z"/>
		<path d="M6080 6982 c0 -14 63 -52 86 -52 10 0 19 -5 19 -10 0 -6 22 -23 49 -39 28 -16 71 -45 96 -64 47 -35 75 -43 75 -21 0 14 -65 61 -85 61 -6 0 -31 16 -54 36 -24 20 -52 37 -62 37 -11 0 -19 5 -19 10 0 6 -22 20 -49 32 -56 24 -56 24 -56 10z"/>
		<path d="M6418 6770 c5 -15 89 -81 103 -81 27 0 4 35 -39 63 -54 34 -71 38 -64 18z"/>
		<path d="M6557 6678 c-7 -11 64 -84 82 -84 5 0 31 -21 58 -47 26 -27 53 -46 58 -44 24 8 16 26 -24 54 -23 16 -42 33 -42 38 0 5 -4 10 -9 10 -5 0 -29 18 -54 42 -49 44 -58 48 -69 31z"/>
		<path d="M6794 6474 c0 -13 73 -79 88 -79 18 0 1 33 -31 61 -41 36 -57 41 -57 18z"/>
		<path d="M6893 6393 c-9 -24 55 -90 71 -73 10 9 3 21 -26 50 -30 31 -40 36 -45 23z"/>
		<path d="M6983 6297 c0 -16 69 -91 84 -91 19 0 10 21 -24 63 -34 41 -61 53 -60 28z"/>
		<path d="M7088 6173 c0 -18 71 -85 83 -78 12 8 3 27 -30 66 -21 25 -53 32 -53 12z"/>
		<path d="M7177 6080 c-7 -12 33 -70 54 -78 27 -11 25 15 -4 51 -31 39 -40 44 -50 27z"/>
		<path d="M7253 5979 c-9 -9 46 -88 62 -88 20 0 17 20 -10 59 -22 33 -39 42 -52 29z"/>
		<path d="M7334 5870 c-7 -13 41 -95 56 -95 19 0 22 14 8 41 -21 39 -55 68 -64 54z"/>
		<path d="M7419 5745 c-6 -11 20 -81 34 -89 4 -3 15 -2 23 3 12 8 9 18 -15 52 -32 47 -33 48 -42 34z"/>
		<path d="M7481 5639 c-6 -11 40 -110 57 -121 24 -14 21 20 -6 73 -29 58 -39 67 -51 48z"/>
		<path d="M5991 5566 c-3 -5 -27 -14 -54 -21 -39 -10 -46 -15 -37 -26 7 -8 27 -17 46 -20 18 -3 43 -9 54 -14 16 -6 19 -4 13 11 -7 18 -1 18 74 12 131 -12 297 -36 363 -54 66 -18 92 -15 92 11 0 29 -145 54 -382 65 -121 5 -154 10 -150 21 6 16 -10 29 -19 15z"/>
		<path d="M7557 5506 c-9 -9 12 -64 30 -78 26 -21 30 -2 10 42 -19 41 -27 49 -40 36z"/>
		<path d="M7613 5376 c0 -16 43 -104 54 -111 21 -14 20 7 -3 63 -13 32 -30 59 -38 59 -7 0 -13 -5 -13 -11z"/>
		<path d="M6899 5287 c0 -10 5 -16 11 -14 6 2 11 8 11 14 0 5 -5 11 -11 13 -6 3 -11 -4 -11 -13z"/>
		<path d="M7682 5230 c-3 -5 3 -27 14 -49 10 -23 25 -61 33 -86 7 -25 20 -51 29 -58 13 -11 14 -7 8 28 -4 22 -14 55 -22 73 -8 18 -20 49 -27 67 -12 34 -25 43 -35 25z"/>
		<path d="M7455 5082 c-26 -26 -27 -44 -1 -67 21 -19 71 -20 67 -1 -1 6 5 18 14 27 19 21 9 48 -20 56 -34 9 -37 8 -60 -15z m53 -44 c0 -14 -35 -6 -40 9 -2 8 4 10 18 7 12 -3 22 -10 22 -16z"/>
		<path d="M5016 6177 c-16 -15 -7 -76 13 -87 43 -23 77 23 52 70 -12 23 -50 33 -65 17z m48 -62 c-4 -10 -9 -12 -16 -6 -12 12 0 37 13 28 5 -3 7 -13 3 -22z"/>
		<path d="M4918 6128 c-4 -10 -1 -24 5 -30 17 -17 16 -22 -19 -59 -37 -38 -39 -60 -12 -95 40 -52 92 5 60 67 -20 38 -14 45 19 27 33 -18 59 -8 59 22 0 22 -1 22 -22 4 -23 -21 -29 -19 -34 11 -1 12 -13 33 -26 46 -21 22 -24 23 -30 7z m23 -153 c-4 -6 -12 -11 -18 -11 -7 0 -7 6 2 16 14 17 27 13 16 -5z"/>
		<path d="M4841 6086 c0 -15 30 -32 39 -23 3 3 2 12 -1 21 -8 20 -38 22 -38 2z"/>
		<path d="M4789 5914 c-39 -47 -40 -66 -7 -104 20 -23 26 -26 27 -12 0 10 -5 21 -10 24 -6 4 -11 19 -11 34 l0 28 26 -25 c27 -25 35 -14 16 22 -18 33 -1 45 27 19 33 -31 40 -22 15 20 -27 43 -44 42 -83 -6z"/>
		<path d="M4683 5796 c-14 -26 -7 -54 20 -78 39 -35 80 19 55 74 -15 32 -59 34 -75 4z m60 -46 c-6 -18 -28 -19 -35 -2 -3 9 -3 25 1 35 7 17 8 17 22 -2 8 -12 14 -26 12 -31z"/>
		<path d="M4578 5765 c-32 -61 26 -161 83 -142 27 8 34 31 20 65 l-13 29 -4 -34 c-4 -40 -21 -43 -47 -7 -26 36 -20 74 11 69 29 -4 31 15 3 30 -29 15 -40 13 -53 -10z"/>
		<path d="M2048 5429 c0 -56 3 -75 13 -71 8 3 13 27 13 71 0 43 -5 67 -13 70 -10 4 -13 -15 -13 -70z"/>
		<path d="M1338 5480 c-18 -23 -40 -83 -33 -90 8 -7 52 79 47 93 -2 6 -8 5 -14 -3z"/>
		<path d="M2139 5464 c-15 -15 -7 -27 16 -21 23 5 23 5 3 -10 -11 -8 -23 -15 -27 -15 -13 0 -22 -34 -12 -44 11 -11 107 11 107 24 0 5 -4 10 -10 10 -5 0 -11 12 -13 28 -2 22 -10 30 -30 32 -15 2 -30 0 -34 -4z m35 -61 c0 -3 -5 -8 -11 -11 -6 -4 -10 -2 -10 4 0 6 4 12 10 12 6 0 11 -3 11 -5z"/>
		<path d="M1871 5449 c2 -6 8 -12 14 -12 5 0 11 6 13 12 3 6 -4 11 -13 11 -10 0 -16 -5 -14 -11z"/>
		<path d="M1761 5417 c-15 -9 -18 -25 -18 -89 0 -77 0 -78 27 -78 38 0 82 47 73 77 -5 12 -9 35 -9 49 -3 50 -31 66 -73 41z m35 -30 c0 -12 -7 -21 -16 -21 -29 0 -19 31 13 41 1 0 3 -9 3 -20z m25 -60 c7 -19 -11 -45 -31 -45 -19 0 -28 31 -14 48 16 20 37 18 45 -3z"/>
		<path d="M1942 5390 c-6 -15 -8 -36 -4 -47 10 -31 78 -23 78 10 0 13 -3 14 -13 4 -15 -15 -39 -16 -39 -2 0 6 6 11 13 11 20 0 38 21 32 38 -10 26 -55 17 -67 -14z"/>
		<path d="M1880 5345 c0 -24 4 -42 10 -42 6 0 11 18 11 42 0 23 -5 42 -11 42 -6 0 -10 -19 -10 -42z"/>
		<path d="M1381 5248 c-4 -9 -5 -24 -4 -32 2 -9 -7 -25 -20 -36 -54 -43 -23 -121 33 -84 26 17 27 22 21 78 -8 72 -20 101 -30 74z m8 -99 c4 -4 2 -16 -4 -28 -13 -24 -37 -8 -27 18 7 17 20 21 31 10z"/>
		<path d="M1465 5234 c-20 -21 -21 -72 -1 -88 23 -20 55 3 61 43 9 55 -24 80 -60 45z m42 -57 c-4 -6 -14 -11 -22 -11 -9 0 -13 5 -10 11 4 5 14 10 22 10 9 0 13 -5 10 -10z"/>
		<path d="M1195 5172 c-11 -28 -14 -50 -8 -54 10 -6 24 24 37 75 11 44 -11 28 -29 -21z"/>
		<path d="M1142 5041 c-21 -59 -22 -64 -8 -64 15 0 42 58 42 89 0 42 -14 31 -34 -25z"/>
		<path d="M857 4972 c-32 -48 -15 -145 27 -158 29 -10 72 22 72 53 0 33 -15 33 -30 0 -23 -51 -57 -19 -53 49 3 37 8 45 25 46 37 2 39 4 26 20 -19 24 -48 19 -67 -10z"/>
		<path d="M1019 4904 c0 -6 4 -11 10 -11 6 0 11 5 11 11 0 5 -5 10 -11 10 -6 0 -10 -5 -10 -10z"/>
		<path d="M616 4655 c-111 -118 -238 -310 -296 -444 -25 -62 -24 -60 -42 -36 -13 18 -15 13 -15 -51 0 -39 2 -71 6 -71 11 0 83 68 84 79 0 6 -8 9 -19 7 -26 -4 -24 1 14 70 84 150 186 294 274 386 68 72 74 83 56 98 -11 9 -24 1 -62 -38z"/>
		<path d="M1365 2165 c0 -16 31 -73 47 -86 25 -21 21 27 -6 64 -21 29 -41 40 -41 22z"/>
		<path d="M1434 2049 c-6 -10 44 -96 58 -96 17 0 10 25 -17 66 -28 41 -32 44 -41 30z"/>
		<path d="M1512 1919 c0 -19 49 -78 58 -69 4 4 -3 24 -16 45 -23 37 -42 48 -42 24z"/>
		<path d="M1439 1884 c0 -3 7 -13 15 -22 9 -9 13 -21 10 -26 -4 -7 -17 1 -30 18 -14 17 -29 26 -36 21 -20 -12 -14 -46 12 -63 49 -33 103 15 65 58 -18 19 -36 27 -36 14z"/>
		<path d="M1590 1797 c17 -34 46 -60 55 -51 10 10 -39 81 -55 81 -14 0 -14 -4 0 -30z"/>
		<path d="M1491 1797 c0 -6 5 -14 11 -17 16 -11 1 -26 -26 -26 -26 0 -53 -25 -44 -40 19 -31 105 24 99 63 -3 23 -40 41 -40 20z"/>
		<path d="M1649 1723 c0 -18 70 -91 79 -82 5 4 -6 25 -23 46 -33 41 -56 55 -56 36z"/>
		<path d="M1525 1699 c-26 -13 -31 -29 -8 -29 28 0 70 20 63 31 -8 13 -24 12 -55 -2z"/>
		<path d="M1430 1649 c4 -14 18 -16 20 -3 0 4 -5 9 -12 11 -7 3 -11 -1 -8 -8z"/>
		<path d="M1554 1644 c-7 -9 -9 -25 -5 -37 4 -15 1 -24 -10 -28 -21 -8 -21 -25 0 -25 21 0 92 36 108 56 10 12 9 19 -4 32 -21 21 -72 22 -89 2z m63 -22 c0 -8 -7 -15 -15 -15 -18 0 -30 14 -20 24 13 13 35 7 35 -9z"/>
		<path d="M1733 1619 c0 -5 16 -28 36 -50 42 -48 50 -29 10 23 -25 34 -46 46 -46 27z"/>
		<path d="M1617 1539 c0 -38 34 -53 73 -32 58 29 38 43 -27 19 -6 -3 -14 5 -17 17 -8 30 -29 27 -29 -4z"/>
		<path d="M1847 1482 c11 -16 28 -36 37 -43 27 -22 21 10 -8 44 -34 39 -57 38 -29 -1z"/>
		<path d="M1678 1454 c-37 -20 -50 -46 -39 -76 7 -19 17 -23 50 -23 49 0 86 12 110 36 23 23 22 32 -5 58 -27 25 -76 27 -116 5z m90 -11 c31 -12 18 -34 -30 -52 -38 -15 -50 -16 -63 -5 -34 28 44 76 93 57z"/>
		<path d="M1911 1415 c0 -18 50 -63 64 -58 7 2 0 17 -16 37 -30 35 -48 43 -48 21z"/>
		<path d="M1995 1329 c0 -20 72 -82 86 -73 6 4 -6 24 -29 47 -43 44 -57 50 -57 26z"/>
		<path d="M2090 1242 c0 -13 56 -66 70 -66 22 0 15 17 -19 46 -31 27 -51 35 -51 20z"/>
		<path d="M2778 5037 c-20 -15 -28 -74 -11 -79 6 -2 14 11 20 29 12 41 27 41 27 1 0 -38 31 -46 33 -8 3 65 -25 89 -69 57z"/>
		<path d="M2659 5013 c-19 -13 -24 -25 -21 -50 2 -28 8 -34 32 -37 32 -3 64 16 53 32 -4 7 -10 6 -17 -1 -15 -14 -39 -15 -39 -1 0 5 12 13 27 17 20 5 26 12 23 29 -4 28 -28 33 -58 11z"/>
		<path d="M2543 4999 c-22 -13 -10 -48 16 -52 13 -1 24 -8 24 -14 0 -7 -12 -9 -31 -5 -36 7 -43 -8 -11 -24 37 -20 88 23 60 51 -6 6 -19 12 -28 12 -10 1 -6 5 8 11 13 5 21 14 18 20 -8 13 -37 13 -56 1z"/>
		<path d="M2438 4971 c-16 -11 -23 -27 -23 -52 0 -49 29 -50 33 -2 3 28 8 33 27 30 26 -3 31 8 11 28 -16 16 -20 16 -48 -4z"/>
		<path d="M2337 4948 c-63 -14 -60 -107 3 -107 22 0 44 34 44 67 0 37 -13 47 -47 40z m26 -48 c0 -22 -28 -43 -37 -28 -11 17 2 42 20 42 9 0 17 -7 17 -14z"/>
		<path d="M2074 4910 c-16 -12 -20 -27 -19 -73 1 -33 4 -64 8 -70 22 -36 108 24 95 66 -4 13 -7 32 -7 44 1 44 -39 61 -77 33z m47 -21 c0 -2 -7 -10 -16 -17 -13 -11 -15 -10 -15 4 0 9 7 17 15 17 9 0 16 -2 16 -4z m16 -59 c9 -14 -14 -42 -33 -42 -15 0 -20 33 -7 46 10 10 32 8 40 -4z"/>
		<path d="M2212 4901 c-13 -10 -18 -24 -16 -45 5 -40 24 -41 28 -2 3 24 7 28 25 23 16 -6 20 -3 17 12 -4 25 -29 30 -54 12z"/>
		<path d="M1614 4844 c-11 -11 -9 -45 3 -45 6 0 11 11 11 26 0 27 -3 31 -14 19z"/>
		<path d="M1550 4663 c-5 -6 -5 -21 -1 -32 4 -13 -2 -28 -15 -42 -24 -24 -29 -63 -9 -82 18 -18 30 -16 65 12 29 23 30 26 13 43 -9 9 -18 28 -18 40 0 33 -26 77 -35 61z m23 -122 c-4 -25 -28 -32 -36 -11 -8 21 16 53 30 39 6 -5 8 -18 6 -28z"/>
		<path d="M1635 4651 c-12 -8 -18 -24 -18 -53 0 -38 2 -41 31 -41 30 0 64 23 64 43 0 14 -12 12 -34 -8 -10 -10 -23 -14 -27 -10 -7 7 1 14 38 37 20 12 7 43 -17 43 -10 0 -27 -5 -37 -11z"/>
		<path d="M5082 4849 c0 -17 53 -71 70 -71 24 0 16 17 -23 51 -41 36 -47 38 -47 20z"/>
		<path d="M5177 4755 c0 -14 49 -61 63 -61 6 0 10 -7 10 -14 0 -17 57 -73 65 -65 10 10 -34 79 -50 79 -8 0 -15 6 -15 14 0 16 -48 59 -64 59 -5 0 -9 -5 -9 -12z"/>
		<path d="M5324 4588 c0 -6 7 -25 16 -42 28 -55 50 -31 24 26 -12 27 -40 38 -40 16z"/>
		<path d="M5376 4495 c0 -5 7 -27 16 -48 13 -29 20 -37 29 -28 8 9 7 21 -6 49 -16 33 -39 50 -39 27z"/>
		<path d="M5424 4401 c-10 -16 5 -69 26 -96 l20 -26 0 27 c0 27 -26 104 -36 104 -2 0 -7 -4 -10 -9z"/>
		<path d="M5466 4262 c-8 -23 9 -86 24 -91 11 -4 13 5 7 41 -8 50 -23 74 -31 50z"/>
		<path d="M5485 4143 c-8 -21 4 -69 17 -69 14 0 14 70 0 79 -6 3 -13 -1 -17 -10z"/>
		<path d="M5489 4050 c-8 -19 3 -81 14 -81 5 0 10 21 10 47 0 45 -13 63 -24 34z"/>
		<path d="M5488 3940 c-14 -22 -18 -85 -7 -92 18 -11 23 -1 29 52 3 31 1 48 -6 48 -6 0 -13 -4 -16 -8z"/>
		<path d="M5475 3817 c-19 -34 -26 -77 -15 -84 14 -9 33 44 29 78 -3 25 -3 26 -14 6z"/>
		<path d="M5424 3664 c-19 -47 -21 -73 -7 -73 9 0 43 86 43 107 0 23 -21 4 -36 -34z"/>
		<path d="M5379 3557 c-23 -29 -33 -57 -24 -71 6 -10 15 -1 30 32 13 25 23 47 23 49 0 8 -20 2 -29 -10z"/>
		<path d="M5297 3420 c-17 -24 -42 -57 -55 -72 -14 -16 -24 -34 -21 -42 5 -15 124 124 124 145 0 26 -19 14 -48 -31z"/>
		<path d="M4087 4982 c-39 -17 -48 -42 -10 -31 52 17 71 26 71 36 0 15 -20 13 -61 -5z"/>
		<path d="M4568 5041 c0 -9 63 -25 70 -18 3 3 2 10 -2 16 -8 14 -68 15 -68 2z"/>
		<path d="M4956 4531 c0 -12 55 -89 64 -89 15 0 11 15 -14 52 -22 32 -50 53 -50 37z"/>
		<path d="M5040 4413 c1 -16 47 -91 59 -95 28 -9 21 29 -11 65 -34 37 -48 45 -48 30z"/>
		<path d="M5103 4292 c1 -7 8 -42 16 -76 8 -35 15 -78 15 -97 0 -32 16 -54 29 -41 7 7 -12 125 -31 188 -11 37 -29 54 -29 26z"/>
		<path d="M5135 3995 c0 -43 3 -58 13 -55 8 3 13 24 13 55 0 32 -5 53 -13 55 -10 4 -13 -12 -13 -55z"/>
		<path d="M5111 3877 c-16 -49 -15 -65 2 -65 8 0 32 78 32 104 0 28 -20 6 -34 -39z"/>
		<path d="M5063 3761 c-21 -38 -21 -54 0 -54 8 0 40 67 40 85 0 21 -19 6 -40 -31z"/>
		<path d="M4614 4714 c-10 -17 15 -31 56 -31 31 0 45 13 26 24 -23 14 -75 18 -82 7z"/>
		<path d="M4766 4492 c22 -20 38 -28 41 -21 5 15 -39 54 -61 54 -10 0 -2 -13 20 -33z"/>
		<path d="M4830 4439 c0 -8 14 -28 32 -45 31 -30 41 -22 20 16 -14 28 -52 48 -52 29z"/>
		<path d="M4904 4343 c0 -2 7 -21 15 -41 15 -37 37 -61 37 -41 0 20 -32 86 -42 86 -6 0 -10 -2 -10 -4z"/>
		<path d="M4956 4203 c0 -32 16 -64 27 -53 9 9 -5 69 -17 77 -6 3 -10 -8 -10 -24z"/>
		<path d="M4974 4089 c-7 -41 0 -71 15 -62 12 8 12 86 0 93 -5 4 -12 -11 -15 -31z"/>
		<path d="M4955 3948 c-13 -42 -7 -66 10 -47 5 6 13 28 16 50 10 53 -10 51 -26 -3z"/>
		<path d="M4913 3826 c-16 -43 -5 -56 15 -18 20 40 21 46 7 46 -6 0 -16 -13 -22 -28z"/>
		<path d="M1073 4806 c-16 -19 -30 -122 -15 -107 12 13 39 109 32 116 -3 3 -11 -1 -17 -9z"/>
		<path d="M1032 4652 c-24 -61 -26 -74 -9 -74 9 0 18 14 22 36 9 48 0 72 -13 38z"/>
		<path d="M1004 4546 c-3 -9 -8 -36 -11 -61 -5 -34 -3 -44 7 -41 19 6 35 90 20 105 -8 8 -13 8 -16 -3z"/>
		<path d="M984 4403 c-14 -49 -18 -98 -9 -98 11 0 28 103 19 112 -3 3 -7 -4 -10 -14z"/>
		<path d="M851 4384 c-32 -38 21 -101 65 -78 14 8 19 20 16 44 -1 19 -8 34 -15 34 -7 0 -16 3 -20 8 -13 12 -32 9 -46 -8z m63 -31 c0 -8 -5 -18 -11 -22 -6 -3 -10 3 -10 15 0 12 4 22 10 22 6 0 11 -7 11 -15z"/>
		<path d="M1097 4368 c-27 -30 -15 -112 22 -144 31 -28 54 -21 78 23 13 24 12 29 -3 45 -17 16 -18 16 -18 -10 0 -35 -24 -57 -41 -36 -17 21 -33 78 -26 96 4 10 15 13 31 9 19 -5 26 -2 26 9 0 15 -21 29 -42 29 -4 0 -16 -9 -27 -21z"/>
		<path d="M1250 4337 c0 -12 4 -21 10 -21 6 0 11 9 11 21 0 11 -5 21 -11 21 -6 0 -10 -10 -10 -21z"/>
		<path d="M777 4284 c0 -6 12 -16 26 -23 17 -8 27 -20 27 -36 0 -32 47 -65 71 -49 10 5 19 24 21 41 3 28 -1 32 -47 48 -84 29 -98 32 -98 19z m126 -69 c0 -8 -7 -15 -14 -15 -17 0 -41 25 -33 34 11 10 47 -5 47 -19z"/>
		<path d="M962 4267 c-10 -26 -8 -115 3 -103 12 13 22 108 11 115 -4 3 -11 -3 -14 -12z"/>
		<path d="M953 4141 c-4 -4 -8 -31 -8 -60 0 -38 3 -50 11 -42 6 6 10 33 8 61 -2 27 -7 46 -11 41z"/>
		<path d="M831 3983 c-92 -117 -176 -295 -195 -411 -7 -38 -11 -44 -28 -38 -25 8 -25 -2 2 -63 21 -49 41 -55 41 -13 0 12 10 35 21 49 26 34 26 46 0 32 -14 -8 -21 -8 -21 -1 0 17 53 170 71 205 34 66 124 202 163 245 39 43 45 65 21 73 -6 2 -40 -33 -75 -78z"/>
		<path d="M1187 2551 c0 -22 30 -83 41 -83 15 0 14 14 -7 57 -17 35 -34 49 -34 26z"/>
		<path d="M1239 2418 c0 -24 38 -87 52 -87 14 0 14 1 -10 57 -20 48 -42 64 -42 30z"/>
		<path d="M3498 4363 c-38 -88 -67 -242 -54 -289 7 -26 7 -26 18 -5 7 12 15 55 19 95 11 111 11 113 25 146 7 17 11 43 9 57 l-4 27 -13 -31z"/>
		<path d="M3035 3749 c-16 -30 -13 -58 8 -78 25 -22 37 -22 58 2 19 21 23 55 7 55 -6 0 -10 -7 -10 -15 0 -19 -28 -42 -36 -30 -3 6 1 19 9 30 9 11 15 28 16 38 0 25 -38 24 -52 -2z"/>
		<path d="M2978 3649 c-8 -30 -22 -35 -31 -11 -6 16 -38 23 -38 8 0 -5 21 -29 47 -55 32 -32 47 -41 47 -29 0 9 -5 20 -11 24 -17 10 -1 26 27 26 14 0 26 5 26 11 0 5 -8 10 -17 10 -9 0 -19 9 -22 21 -7 29 -20 26 -28 -5z"/>
		<path d="M2884 3540 c-10 -10 -17 -28 -17 -40 0 -25 30 -56 55 -56 19 0 52 41 43 54 -9 15 -25 10 -25 -8 0 -10 -7 -15 -18 -13 -24 5 -31 49 -9 57 9 4 17 11 17 16 0 16 -28 10 -46 -10z"/>
		<path d="M2804 3424 c-6 -11 -11 -25 -11 -31 0 -14 52 -75 64 -75 17 0 10 24 -13 49 -32 34 -12 55 27 30 22 -15 27 -16 27 -3 0 22 -34 50 -61 50 -12 0 -27 -9 -33 -20z"/>
		<path d="M2690 3329 c-13 -21 -23 -42 -23 -47 0 -15 107 -111 117 -105 20 13 53 91 42 102 -7 7 -16 -2 -27 -29 -19 -46 -43 -44 -41 3 1 36 -6 41 -26 21 -20 -21 -38 5 -23 33 6 12 10 31 8 40 -3 14 -10 9 -27 -18z"/>
		<path d="M4234 4686 c-39 -20 -44 -34 -13 -34 33 0 97 29 89 41 -9 15 -36 13 -76 -7z"/>
		<path d="M4415 4623 c-59 -5 -89 -13 -89 -23 0 -8 158 -3 168 6 5 5 -23 25 -31 23 -3 -1 -25 -4 -48 -6z"/>
		<path d="M4260 4591 c-39 -16 -52 -34 -25 -34 24 0 81 22 81 32 0 17 -16 17 -56 2z"/>
		<path d="M4151 4531 c-27 -23 -27 -26 -9 -26 25 0 58 23 58 40 0 19 -17 14 -49 -14z"/>
		<path d="M4470 4361 c-32 -9 -20 -24 19 -24 38 0 49 13 20 25 -9 3 -18 5 -18 5 -1 -1 -11 -4 -21 -6z"/>
		<path d="M4540 4356 c-9 -16 0 -21 50 -27 34 -4 43 -3 35 6 -18 19 -77 33 -85 21z"/>
		<path d="M4641 4318 c0 -13 72 -66 78 -57 5 10 -22 36 -56 54 -12 6 -22 8 -22 3z"/>
		<path d="M4731 4243 c-9 -14 25 -76 45 -83 10 -3 9 6 -4 36 -20 49 -32 62 -41 47z"/>
		<path d="M3948 4456 c-32 -55 -10 -71 25 -18 31 45 34 56 13 56 -8 0 -25 -17 -38 -38z"/>
		<path d="M1456 4330 c-8 -9 1 -25 15 -25 5 0 10 7 10 16 0 16 -13 21 -25 9z"/>
		<path d="M936 3801 c1 -23 5 -45 10 -48 5 -3 10 16 10 42 0 26 -5 48 -10 48 -6 0 -10 -19 -10 -42z"/>
		<path d="M943 3714 c-10 -26 -3 -95 10 -99 9 -4 13 12 13 54 0 54 -12 77 -23 45z"/>
		<path d="M945 3573 c0 -37 13 -87 22 -87 16 0 11 81 -6 95 -13 10 -16 9 -16 -8z"/>
		<path d="M962 3405 c10 -73 27 -84 23 -14 -2 33 -9 58 -16 61 -10 3 -12 -9 -7 -47z"/>
		<path d="M984 3263 c5 -43 18 -70 29 -59 9 9 -10 96 -23 101 -8 2 -10 -10 -6 -42z"/>
		<path d="M1004 3173 c-4 -6 -5 -17 -2 -25 2 -7 7 -27 11 -43 10 -48 30 -34 22 16 -8 48 -20 69 -31 52z"/>
		<path d="M1034 3011 c12 -58 17 -71 28 -71 10 0 3 77 -9 97 -12 22 -25 5 -19 -26z"/>
		<path d="M1066 2897 c9 -44 28 -82 33 -67 7 21 -13 93 -27 97 -10 4 -12 -3 -6 -30z"/>
		<path d="M2583 2652 c0 -9 7 -16 17 -16 18 0 15 22 -5 29 -6 2 -12 -4 -12 -13z"/>
		<path d="M4291 4262 c-33 -26 -40 -59 -9 -40 22 14 48 51 41 58 -2 2 -17 -6 -32 -18z"/>
		<path d="M4423 4203 c-31 -6 -97 -84 -98 -118 -3 -59 22 -119 60 -144 39 -25 100 -36 135 -23 84 30 118 153 63 226 -44 57 -88 73 -160 59z"/>
		<path d="M4226 4161 c-3 -22 -10 -50 -15 -62 -9 -22 -6 -53 8 -88 3 -9 9 13 13 47 4 35 11 81 15 103 6 26 4 39 -3 39 -6 0 -14 -18 -18 -39z"/>
		<path d="M4762 3959 c-9 -17 -16 -37 -16 -45 -1 -7 -19 -27 -42 -45 -23 -17 -41 -37 -42 -45 0 -8 -5 -11 -10 -7 -6 3 -26 -1 -45 -10 -19 -9 -58 -17 -87 -19 -72 -4 -57 -24 17 -22 72 2 156 43 190 91 13 18 27 36 31 39 5 3 15 23 24 44 20 47 3 64 -20 19z"/>
		<path d="M4227 3971 c-7 -12 26 -75 40 -75 5 0 6 12 2 28 -9 36 -32 62 -42 47z"/>
		<path d="M4284 3868 c0 -9 34 -35 46 -35 5 0 1 9 -9 21 -19 20 -37 27 -37 14z"/>
		<path d="M4357 3834 c-18 -15 -22 -25 -17 -47 10 -37 54 -49 81 -22 18 19 19 22 3 54 -19 39 -33 43 -67 15z"/>
		<path d="M4642 3585 c-35 -26 -12 -42 29 -21 18 9 33 22 33 27 0 16 -35 12 -62 -6z"/>
		<path d="M4549 3558 c-44 -13 -46 -35 -1 -26 18 4 37 7 42 7 5 0 9 7 9 15 0 18 -2 18 -50 4z"/>
		<path d="M3919 4203 c-16 -27 -17 -62 -2 -71 14 -9 23 17 19 59 -4 34 -4 34 -17 12z"/>
		<path d="M3902 4093 c-7 -28 2 -71 16 -71 12 0 12 80 0 88 -5 3 -12 -5 -16 -17z"/>
		<path d="M3913 4004 c-11 -11 -8 -32 9 -74 21 -49 39 -34 26 22 -10 43 -23 64 -35 52z"/>
		<path d="M3938 3881 c0 -2 7 -21 15 -41 16 -39 34 -56 45 -45 10 10 -31 90 -46 90 -8 0 -14 -2 -14 -4z"/>
		<path d="M4015 3755 c-6 -16 5 -32 54 -76 57 -52 89 -69 89 -48 0 11 -59 55 -73 55 -6 0 -11 5 -11 13 0 7 -12 27 -25 44 -24 29 -27 30 -34 12z"/>
		<path d="M3906 3742 c0 -12 36 -67 44 -67 14 0 10 25 -8 50 -15 22 -36 32 -36 17z"/>
		<path d="M3979 3634 c6 -12 16 -24 22 -27 5 -4 10 -23 10 -42 0 -43 6 -47 68 -52 45 -3 61 6 37 20 -6 4 -10 17 -10 30 0 32 -20 49 -53 49 -16 0 -37 9 -47 21 -25 27 -41 27 -27 1z"/>
		<path d="M4179 3601 c0 -12 65 -43 74 -34 7 7 -42 45 -59 45 -8 0 -15 -5 -15 -11z"/>
		<path d="M4286 3578 c-24 -24 -4 -92 28 -92 18 0 54 35 54 52 0 42 -54 68 -82 40z"/>
		<path d="M4140 3494 c3 -12 65 -48 84 -49 20 -2 3 18 -33 39 -47 26 -57 28 -51 10z"/>
		<path d="M4242 3446 c0 -6 19 -18 42 -27 51 -21 53 -21 53 -2 0 8 -13 17 -29 21 -16 4 -38 9 -48 12 -10 3 -18 1 -18 -4z"/>
		<path d="M4368 3408 c0 -17 94 -32 109 -17 15 15 8 18 -54 25 -42 4 -55 3 -55 -8z"/>
		<path d="M4500 3403 c-10 -16 9 -22 50 -15 56 9 58 25 3 25 -26 0 -50 -5 -53 -10z"/>
		<path d="M3448 3881 c-3 -9 -3 -30 1 -46 3 -16 10 -45 15 -65 15 -59 66 -194 76 -198 5 -2 9 -10 9 -17 0 -20 32 -79 43 -79 5 0 10 6 10 13 0 19 -25 70 -35 70 -4 0 -7 11 -7 24 0 14 -8 36 -18 49 -19 27 -42 110 -55 193 -9 57 -28 85 -39 56z"/>
		<path d="M3618 3446 c-8 -13 22 -61 44 -69 21 -9 15 22 -12 52 -16 20 -27 25 -32 17z"/>
		<path d="M3681 3361 c-5 -8 5 -28 27 -51 19 -20 42 -45 51 -54 25 -26 75 -64 85 -64 20 0 8 30 -19 48 -16 10 -53 44 -83 76 -37 39 -56 53 -61 45z"/>
		<path d="M3864 3181 c0 -5 26 -27 58 -47 32 -21 58 -41 58 -46 0 -5 19 -12 42 -16 24 -3 53 -13 66 -21 12 -8 36 -17 53 -21 48 -11 28 18 -26 36 -46 16 -119 55 -189 101 -39 27 -62 32 -62 14z"/>
		<path d="M4768 3473 c-23 -14 -31 -24 -22 -27 16 -6 84 28 84 42 0 14 -24 8 -62 -15z"/>
		<path d="M7876 3065 c-9 -30 -10 -47 -2 -55 12 -12 17 -3 27 59 9 53 -9 50 -25 -4z"/>
		<path d="M7844 2943 c-14 -49 -14 -66 -1 -66 14 0 20 12 28 61 9 56 -12 59 -27 5z"/>
		<path d="M7812 2830 c-21 -56 -24 -79 -9 -79 9 0 19 19 26 48 12 52 0 75 -17 31z"/>
		<path d="M7777 2719 c-3 -9 -10 -31 -17 -51 -13 -43 -13 -43 -2 -43 16 0 46 86 34 98 -7 7 -12 6 -15 -4z"/>
		<path d="M7711 2545 c-11 -27 -13 -42 -5 -49 8 -8 16 0 27 27 19 45 20 60 5 60 -6 0 -18 -17 -27 -38z"/>
		<path d="M7665 2430 c-6 -15 -10 -37 -10 -49 0 -20 1 -21 15 -7 20 20 33 83 17 83 -7 0 -17 -12 -22 -27z"/>
		<path d="M7608 2311 c-19 -36 -21 -64 -5 -64 10 0 41 62 41 84 0 21 -21 10 -36 -20z"/>
		<path d="M7551 2189 c-25 -42 -27 -53 -12 -63 14 -8 57 79 44 91 -6 7 -18 -4 -32 -28z"/>
		<path d="M7473 2056 c-29 -45 -36 -71 -19 -71 9 0 75 97 75 110 0 3 -7 5 -14 5 -7 0 -26 -20 -42 -44z"/>
		<path d="M7393 1926 c-25 -43 -27 -57 -9 -57 15 0 50 56 50 80 0 26 -18 16 -41 -23z"/>
		<path d="M7316 1812 c-28 -34 -38 -69 -20 -69 11 0 49 53 58 82 11 33 -4 27 -38 -13z"/>
		<path d="M7232 1695 c-25 -44 -26 -49 -9 -55 6 -2 15 5 18 16 4 10 14 27 23 37 12 14 13 22 4 31 -8 9 -18 1 -36 -29z"/>
		<path d="M7146 1591 c-28 -37 -34 -58 -17 -58 13 0 64 66 64 82 0 22 -19 13 -47 -24z"/>
		<path d="M7052 1476 c-28 -37 -35 -58 -18 -58 13 0 64 66 64 82 0 22 -18 13 -46 -24z"/>
		<path d="M6959 1377 c-29 -29 -38 -54 -19 -54 14 0 74 60 74 73 0 19 -25 10 -55 -19z"/>
		<path d="M6864 1283 c-28 -29 -37 -54 -20 -54 10 0 76 66 76 76 0 17 -30 5 -56 -22z"/>
		<path d="M6754 1183 c-19 -19 -34 -38 -34 -42 0 -19 31 -3 68 35 35 35 38 42 20 42 -11 0 -36 -16 -54 -35z"/>
		<path d="M6654 1101 c-26 -19 -39 -51 -22 -51 13 0 78 53 78 64 0 16 -25 10 -56 -13z"/>
		<path d="M2300 1062 c0 -11 79 -75 93 -75 22 0 11 20 -28 52 -38 31 -65 41 -65 23z"/>
		<path d="M6539 1013 c-38 -26 -51 -47 -29 -47 16 0 95 54 95 64 0 17 -26 10 -66 -17z"/>
		<path d="M2410 977 c-5 -9 19 -28 86 -67 9 -6 13 -2 13 11 0 11 -17 29 -41 42 -47 27 -49 28 -58 14z"/>
		<path d="M6423 929 c-38 -26 -50 -47 -28 -47 15 0 93 55 94 66 0 15 -27 7 -66 -19z"/>
		<path d="M2548 896 c-14 -14 -6 -24 39 -50 52 -31 62 -33 57 -11 -4 19 -86 71 -96 61z"/>
		<path d="M6326 866 c-40 -17 -63 -42 -48 -52 12 -7 96 44 96 59 0 12 -9 10 -48 -7z"/>
		<path d="M2662 806 c5 -13 86 -61 102 -61 22 1 3 30 -34 50 -45 27 -76 31 -68 11z"/>
		<path d="M6187 786 c-24 -12 -44 -28 -44 -36 0 -20 5 -19 63 13 28 15 49 32 46 37 -8 12 -14 11 -65 -14z"/>
		<path d="M2793 740 c0 -17 90 -66 101 -55 11 11 -6 28 -51 50 -52 25 -50 25 -50 5z"/>
		<path d="M6051 713 c-46 -22 -58 -41 -29 -41 23 0 100 40 100 53 0 16 -23 12 -71 -12z"/>
		<path d="M2914 672 c8 -13 83 -52 99 -52 28 0 6 28 -34 44 -50 21 -75 24 -65 8z"/>
		<path d="M5919 646 c-46 -24 -50 -27 -44 -37 7 -11 102 23 107 40 6 17 -27 16 -63 -3z"/>
		<path d="M3051 622 c-13 -13 -5 -22 36 -38 47 -19 63 -21 63 -9 0 12 -91 55 -99 47z"/>
		<path d="M5778 586 c-32 -12 -55 -28 -55 -37 0 -11 6 -13 23 -8 42 13 103 47 103 58 0 13 -5 12 -71 -13z"/>
		<path d="M3167 569 c-8 -13 11 -27 55 -42 45 -15 44 -16 44 2 0 8 -13 20 -29 25 -16 6 -37 14 -47 18 -9 4 -20 2 -23 -3z"/>
		<path d="M5636 529 c-38 -16 -53 -35 -27 -35 23 0 103 33 103 43 0 13 -32 10 -76 -8z"/>
		<path d="M3281 525 c-9 -15 -9 -15 41 -36 50 -20 59 -21 59 -2 0 8 -13 20 -29 25 -16 6 -37 14 -46 18 -10 4 -21 2 -25 -5z"/>
		<path d="M3402 481 c0 -15 55 -40 87 -40 19 0 24 16 9 25 -4 3 -20 8 -34 10 -14 3 -34 8 -44 12 -12 5 -18 3 -18 -7z"/>
		<path d="M5494 482 c-19 -6 -34 -17 -34 -26 0 -12 6 -14 24 -9 52 16 71 26 71 36 0 12 -14 12 -61 -1z"/>
		<path d="M5376 450 c-40 -12 -60 -26 -50 -36 11 -11 113 20 113 34 0 16 -11 16 -63 2z"/>
		<path d="M3539 438 c0 -14 80 -43 102 -37 4 1 17 -3 29 -9 28 -16 91 -22 96 -9 2 6 -38 21 -88 34 -51 12 -103 26 -116 30 -17 5 -23 3 -23 -9z"/>
		<path d="M5225 411 c-34 -7 -51 -33 -22 -33 29 0 100 24 100 33 0 10 -32 10 -78 0z"/>
		<path d="M3791 375 c19 -20 115 -36 115 -20 0 17 -11 21 -74 29 -51 6 -56 5 -41 -9z"/>
		<path d="M5064 381 c-13 -2 -24 -12 -24 -21 0 -13 8 -14 39 -9 61 11 77 17 71 28 -6 10 -43 11 -86 2z"/>
		<path d="M3942 356 c-4 -6 -5 -12 -3 -14 10 -9 104 -13 104 -4 0 17 -91 34 -101 18z"/>
		<path d="M4938 360 c-13 -2 -24 -12 -24 -20 0 -13 8 -15 45 -9 50 8 60 13 60 27 0 10 -37 11 -81 2z"/>
		<path d="M4068 346 c-9 -16 -6 -17 56 -26 37 -5 55 -3 55 4 0 7 -12 14 -26 17 -15 3 -38 8 -52 11 -14 3 -29 0 -33 -6z"/>
		<path d="M4764 340 c-14 -14 6 -25 45 -25 46 0 74 8 74 22 0 11 -109 13 -119 3z"/>
		<path d="M4195 326 c-8 -13 52 -25 81 -15 23 7 23 7 3 15 -30 12 -77 12 -84 0z"/>
		<path d="M4633 329 c-37 -8 -17 -24 29 -24 46 0 74 8 74 22 0 9 -59 10 -103 2z"/>
		<path d="M4337 315 c0 -6 25 -10 57 -10 32 0 58 4 58 10 0 6 -26 11 -58 11 -32 0 -57 -5 -57 -11z"/>
		<path d="M4473 316 c0 -10 81 -21 102 -14 32 11 9 24 -44 24 -32 0 -58 -5 -58 -10z"/>
		<path d="M3843 244 c0 -26 16 -30 168 -45 257 -24 503 -34 525 -20 25 15 -1 18 -184 25 -145 6 -362 31 -475 54 -30 6 -34 4 -34 -14z"/>
		<path d="M4561 184 c-13 -42 -9 -44 43 -19 44 21 46 31 10 45 -39 15 -40 14 -53 -26z"/>
		<path d="M4728 3030 c-50 -17 -56 -31 -10 -24 45 7 53 12 47 26 -2 6 -17 5 -37 -2z"/>
		<path d="M4951 3113 l-32 -27 32 6 c17 4 41 16 52 27 21 20 21 20 0 20 -11 0 -35 -12 -52 -26z"/>
		<path d="M4323 3007 c-15 -15 6 -25 51 -25 26 0 47 5 47 11 0 5 -11 10 -24 10 -13 0 -33 3 -45 6 -12 3 -25 2 -29 -2z"/>
		<path d="M4079 2792 c-19 -6 -18 -8 7 -14 16 -5 36 -3 46 2 16 9 15 11 -8 15 -14 3 -34 1 -45 -3z"/>
		<path d="M4181 2792 c2 -6 8 -11 14 -11 5 0 11 5 13 11 3 6 -4 12 -13 12 -10 0 -16 -6 -14 -12z"/>
		<path d="M4221 2793 c0 -6 7 -10 16 -10 8 0 16 4 16 10 0 6 -8 11 -16 11 -9 0 -16 -5 -16 -11z"/>
	</g>
</svg>
